<?xml version="1.0" encoding="UTF-8"?>
<svg id="Layer_2" data-name="Layer 2" xmlns="http://www.w3.org/2000/svg" viewBox="0 0 261.27 329.17">
  <defs>
    <style>
      .cls-1 {
        fill: #231f20;
      }
    </style>
  </defs>
  <g id="Layer_2-2" data-name="Layer 2">
    <g>
      <g>
        <circle class="cls-1" cx="58.7" cy="163.52" r="3.7"/>
        <circle class="cls-1" cx="67.69" cy="163.11" r="3.7"/>
        <circle class="cls-1" cx="76.86" cy="165" r="3.7"/>
        <circle class="cls-1" cx="84.26" cy="170.51" r="3.7"/>
        <circle class="cls-1" cx="79.19" cy="177.91" r="3.7"/>
        <circle class="cls-1" cx="70.37" cy="179.42" r="3.7"/>
        <circle class="cls-1" cx="61.49" cy="179.42" r="3.7"/>
        <circle class="cls-1" cx="52.84" cy="176.66" r="3.7"/>
        <circle class="cls-1" cx="48.36" cy="170.51" r="3.7"/>
        <circle class="cls-1" cx="67.55" cy="169.33" r="6.7"/>
        <circle class="cls-1" cx="52.06" cy="165.37" r="3.7"/>
      </g>
      <circle class="cls-1" cx="89.19" cy="161.42" r="4.68"/>
      <circle class="cls-1" cx="81.29" cy="159.41" r="4.68"/>
      <circle class="cls-1" cx="71.93" cy="157.87" r="4.68"/>
      <circle class="cls-1" cx="61.9" cy="156.74" r="4.68"/>
      <circle class="cls-1" cx="51.85" cy="156.12" r="5.69"/>
      <circle class="cls-1" cx="44.95" cy="161.24" r="4.13"/>
      <circle class="cls-1" cx="38.57" cy="166.1" r="3.06"/>
      <g>
        <circle class="cls-1" cx="156.22" cy="161.59" r="3.7"/>
        <circle class="cls-1" cx="147.23" cy="161.17" r="3.7"/>
        <circle class="cls-1" cx="137.15" cy="163.06" r="3.7"/>
        <circle class="cls-1" cx="130.66" cy="168.57" r="3.7"/>
        <circle class="cls-1" cx="135.72" cy="175.97" r="3.7"/>
        <circle class="cls-1" cx="144.55" cy="177.48" r="3.7"/>
        <circle class="cls-1" cx="153.43" cy="177.48" r="3.7"/>
        <circle class="cls-1" cx="162.08" cy="174.72" r="3.7"/>
        <circle class="cls-1" cx="167.57" cy="169.8" r="3.7"/>
        <circle class="cls-1" cx="147.37" cy="167.39" r="6.7"/>
        <circle class="cls-1" cx="164.37" cy="163.06" r="3.7"/>
      </g>
      <circle class="cls-1" cx="130.66" cy="156.12" r="4.68"/>
      <circle class="cls-1" cx="138.06" cy="150.05" r="4.68"/>
      <circle class="cls-1" cx="146.7" cy="145.59" r="4.68"/>
      <circle class="cls-1" cx="155.61" cy="144.19" r="4.68"/>
      <circle class="cls-1" cx="165.78" cy="144.19" r="5.87"/>
      <circle class="cls-1" cx="171.65" cy="150.43" r="4.68"/>
      <circle class="cls-1" cx="176.33" cy="157.47" r="3.8"/>
      <circle class="cls-1" cx="92.63" cy="226.42" r="3.73"/>
      <circle class="cls-1" cx="111.19" cy="233.88" r="3.73"/>
      <circle class="cls-1" cx="127.86" cy="222.69" r="3.73"/>
      <circle class="cls-1" cx="103.72" cy="232.71" r="3.73"/>
      <circle class="cls-1" cx="119.18" cy="231.86" r="3.73"/>
      <circle class="cls-1" cx="123.79" cy="227.45" r="3.73"/>
      <circle class="cls-1" cx="98.65" cy="230.15" r="3.73"/>
      <g>
        <circle class="cls-1" cx="119.4" cy="166.84" r="1.85"/>
        <circle class="cls-1" cx="117.55" cy="170.45" r="1.85"/>
        <circle class="cls-1" cx="115.7" cy="174.2" r="1.85"/>
        <circle class="cls-1" cx="115.34" cy="177.85" r="1.85"/>
        <circle class="cls-1" cx="115.7" cy="181.58" r="1.85"/>
      </g>
      <circle class="cls-1" cx="79.02" cy="254.48" r="1.58"/>
      <circle class="cls-1" cx="82.88" cy="255.89" r="1.85"/>
      <circle class="cls-1" cx="86.45" cy="257.25" r="1.85"/>
      <circle class="cls-1" cx="90.22" cy="258.6" r="1.85"/>
      <circle class="cls-1" cx="94.48" cy="259.72" r="1.85"/>
      <circle class="cls-1" cx="98.65" cy="260.45" r="1.85"/>
      <circle class="cls-1" cx="102.75" cy="260.99" r="1.85"/>
      <circle class="cls-1" cx="106.19" cy="261.43" r="2.46"/>
      <circle class="cls-1" cx="109.76" cy="260.88" r="2.98"/>
      <circle class="cls-1" cx="115.41" cy="260.88" r="2.97"/>
      <circle class="cls-1" cx="131.81" cy="258.12" r="1.85"/>
      <circle class="cls-1" cx="136.03" cy="256.67" r="1.85"/>
      <circle class="cls-1" cx="139.84" cy="255.35" r="1.44"/>
      <circle class="cls-1" cx="127.86" cy="259.49" r="1.85"/>
      <circle class="cls-1" cx="123.79" cy="260.41" r="1.85"/>
      <circle class="cls-1" cx="119.86" cy="260.88" r="2.25"/>
      <circle class="cls-1" cx="99.43" cy="240.07" r="2.98"/>
      <circle class="cls-1" cx="97.7" cy="246.36" r="2.98"/>
      <circle class="cls-1" cx="96.37" cy="252.98" r="2.98"/>
      <circle class="cls-1" cx="106.09" cy="241.6" r="2.98"/>
      <circle class="cls-1" cx="104.74" cy="246.36" r="2.98"/>
      <circle class="cls-1" cx="103.38" cy="253.7" r="2.98"/>
      <circle class="cls-1" cx="92.63" cy="238.64" r="2.98"/>
      <circle class="cls-1" cx="91.56" cy="244.64" r="2.98"/>
      <circle class="cls-1" cx="88.9" cy="250.59" r="2.98"/>
      <circle class="cls-1" cx="86.45" cy="240.07" r="2.98"/>
      <circle class="cls-1" cx="83.96" cy="245.41" r="2.98"/>
      <circle class="cls-1" cx="80.38" cy="248.65" r="2.98"/>
      <circle class="cls-1" cx="79.37" cy="240.07" r="2.98"/>
      <circle class="cls-1" cx="74.07" cy="244.98" r="2.98"/>
      <circle class="cls-1" cx="71.71" cy="249.64" r="2.98"/>
      <circle class="cls-1" cx="68.51" cy="244.08" r="2.98"/>
      <circle class="cls-1" cx="64.03" cy="249.64" r="2.98"/>
      <g>
        <circle class="cls-1" cx="119.53" cy="239.32" r="2.98"/>
        <circle class="cls-1" cx="121.25" cy="245.6" r="2.98"/>
        <circle class="cls-1" cx="122.59" cy="252.22" r="2.98"/>
        <circle class="cls-1" cx="112.86" cy="240.84" r="2.98"/>
        <circle class="cls-1" cx="114.21" cy="245.6" r="2.98"/>
        <circle class="cls-1" cx="115.57" cy="252.95" r="2.98"/>
        <circle class="cls-1" cx="126.32" cy="237.88" r="2.98"/>
        <circle class="cls-1" cx="127.4" cy="243.88" r="2.98"/>
        <circle class="cls-1" cx="130.06" cy="249.83" r="2.98"/>
        <circle class="cls-1" cx="132.5" cy="239.32" r="2.98"/>
        <circle class="cls-1" cx="134.99" cy="244.65" r="2.98"/>
        <circle class="cls-1" cx="138.58" cy="247.89" r="2.98"/>
        <circle class="cls-1" cx="139.58" cy="239.32" r="2.98"/>
        <circle class="cls-1" cx="144.89" cy="244.22" r="2.98"/>
        <circle class="cls-1" cx="147.24" cy="248.88" r="2.98"/>
        <circle class="cls-1" cx="150.44" cy="243.32" r="2.98"/>
        <circle class="cls-1" cx="154.92" cy="248.88" r="2.98"/>
        <circle class="cls-1" cx="109.18" cy="253.7" r="2.98"/>
        <circle class="cls-1" cx="109.18" cy="246.36" r="2.98"/>
      </g>
      <circle class="cls-1" cx="105.32" cy="275.37" r="4.44"/>
      <circle class="cls-1" cx="115.57" cy="275.37" r="4.44"/>
      <circle class="cls-1" cx="106.19" cy="283.45" r="2.98"/>
      <circle class="cls-1" cx="114.92" cy="283.45" r="2.98"/>
      <circle class="cls-1" cx="123.98" cy="277.3" r="2.98"/>
      <circle class="cls-1" cx="98.12" cy="277.3" r="2.98"/>
      <circle class="cls-1" cx="99.08" cy="284.25" r="2.98"/>
      <circle class="cls-1" cx="121.63" cy="283.45" r="2.98"/>
      <circle class="cls-1" cx="111.19" cy="290.05" r="2.98"/>
      <circle class="cls-1" cx="158.7" cy="255.35" r="2.98"/>
      <circle class="cls-1" cx="160.39" cy="263.43" r="2.98"/>
      <circle class="cls-1" cx="111.73" cy="301.81" r="4.3"/>
      <circle class="cls-1" cx="112.2" cy="312.8" r="4.3"/>
      <circle class="cls-1" cx="112.01" cy="323.52" r="5.65"/>
      <circle class="cls-1" cx="125.03" cy="323.52" r="5.65"/>
      <circle class="cls-1" cx="99.08" cy="320.9" r="5.65"/>
      <circle class="cls-1" cx="138.06" cy="320.9" r="5.65"/>
      <circle class="cls-1" cx="85.97" cy="318.24" r="5.65"/>
      <circle class="cls-1" cx="151.38" cy="314.8" r="5.65"/>
      <circle class="cls-1" cx="160.98" cy="305.1" r="5.65"/>
      <circle class="cls-1" cx="171.35" cy="295.66" r="5.65"/>
      <circle class="cls-1" cx="179.43" cy="284.25" r="5.65"/>
      <circle class="cls-1" cx="186.24" cy="271.84" r="5.65"/>
      <circle class="cls-1" cx="191.04" cy="259.49" r="5.65"/>
      <circle class="cls-1" cx="194.73" cy="246.36" r="5.65"/>
      <circle class="cls-1" cx="197.49" cy="232.71" r="5.65"/>
      <circle class="cls-1" cx="201.64" cy="220.14" r="4.83"/>
      <circle class="cls-1" cx="202.7" cy="209.81" r="3.58"/>
      <circle class="cls-1" cx="75.42" cy="310.58" r="5.65"/>
      <circle class="cls-1" cx="64.03" cy="303.33" r="5.65"/>
      <circle class="cls-1" cx="54.56" cy="295.19" r="5.65"/>
      <circle class="cls-1" cx="46.06" cy="284.82" r="5.65"/>
      <circle class="cls-1" cx="38.61" cy="274.53" r="5.65"/>
      <circle class="cls-1" cx="31.78" cy="263.43" r="5.65"/>
      <circle class="cls-1" cx="26.27" cy="252.22" r="5.65"/>
      <circle class="cls-1" cx="22.76" cy="240.07" r="5.65"/>
      <circle class="cls-1" cx="21.44" cy="228.98" r="4.83"/>
      <circle class="cls-1" cx="19.71" cy="219.49" r="3.58"/>
      <circle class="cls-1" cx="19.71" cy="210.61" r="3.58"/>
      <circle class="cls-1" cx="19.71" cy="201.44" r="3.58"/>
      <circle class="cls-1" cx="19.71" cy="192.56" r="3.58"/>
      <circle class="cls-1" cx="19.76" cy="183.12" r="3.58"/>
      <circle class="cls-1" cx="20.43" cy="174.72" r="3.58"/>
      <circle class="cls-1" cx="20.43" cy="166.76" r="3.58"/>
      <circle class="cls-1" cx="19.76" cy="158.16" r="3.58"/>
      <circle class="cls-1" cx="20.43" cy="148.87" r="3.58"/>
      <circle class="cls-1" cx="203.97" cy="200.73" r="3.58"/>
      <circle class="cls-1" cx="203.74" cy="191.7" r="3.58"/>
      <circle class="cls-1" cx="203.11" cy="182.79" r="3.58"/>
      <circle class="cls-1" cx="202.36" cy="174.2" r="3.58"/>
      <circle class="cls-1" cx="202.36" cy="165.33" r="3.58"/>
      <circle class="cls-1" cx="201.13" cy="156.47" r="3.58"/>
      <circle class="cls-1" cx="63.31" cy="256.67" r="2.98"/>
      <circle class="cls-1" cx="62.66" cy="263.43" r="2.98"/>
      <circle class="cls-1" cx="56.42" cy="261.43" r="2.98"/>
      <circle class="cls-1" cx="68.51" cy="267.36" r="2.98"/>
      <circle class="cls-1" cx="68.71" cy="258.83" r="2.98"/>
      <circle class="cls-1" cx="152.33" cy="256.67" r="2.98"/>
      <circle class="cls-1" cx="153.63" cy="264.52" r="2.98"/>
      <circle class="cls-1" cx="66.89" cy="275.68" r="4.44"/>
      <circle class="cls-1" cx="56.97" cy="271.59" r="4.44"/>
      <circle class="cls-1" cx="44.07" cy="265.07" r="4.44"/>
      <circle class="cls-1" cx="64.77" cy="285.61" r="4.44"/>
      <circle class="cls-1" cx="55.89" cy="280.63" r="4.44"/>
      <circle class="cls-1" cx="48.18" cy="274.38" r="4.44"/>
      <circle class="cls-1" cx="86.45" cy="295.19" r="4.44"/>
      <circle class="cls-1" cx="75.42" cy="289.23" r="4.44"/>
      <circle class="cls-1" cx="67.44" cy="295.51" r="4.44"/>
      <circle class="cls-1" cx="77.6" cy="299.86" r="4.44"/>
      <circle class="cls-1" cx="88.9" cy="306.11" r="4.44"/>
      <circle class="cls-1" cx="100.39" cy="310.4" r="4.44"/>
      <circle class="cls-1" cx="98.65" cy="298.89" r="4.44"/>
      <circle class="cls-1" cx="122.59" cy="313.15" r="4.44"/>
      <circle class="cls-1" cx="123.54" cy="302.14" r="4.44"/>
      <circle class="cls-1" cx="132.73" cy="311.02" r="4.44"/>
      <circle class="cls-1" cx="134.12" cy="299.66" r="4.44"/>
      <circle class="cls-1" cx="143.79" cy="306.59" r="4.44"/>
      <circle class="cls-1" cx="144.45" cy="295.19" r="4.44"/>
      <circle class="cls-1" cx="154.6" cy="298.89" r="4.44"/>
      <circle class="cls-1" cx="152.33" cy="288.67" r="4.44"/>
      <circle class="cls-1" cx="163.43" cy="290.05" r="4.44"/>
      <circle class="cls-1" cx="167.94" cy="280.23" r="4.44"/>
      <circle class="cls-1" cx="156.77" cy="279" r="4.44"/>
      <circle class="cls-1" cx="163.02" cy="271.05" r="4.44"/>
      <circle class="cls-1" cx="174.58" cy="270.41" r="4.44"/>
      <circle class="cls-1" cx="168.81" cy="262.06" r="4.44"/>
      <circle class="cls-1" cx="178.81" cy="258.83" r="4.44"/>
      <circle class="cls-1" cx="39.26" cy="256.67" r="4.44"/>
      <circle class="cls-1" cx="36.23" cy="247.89" r="4.44"/>
      <circle class="cls-1" cx="182.58" cy="249.64" r="4.44"/>
      <circle class="cls-1" cx="13.56" cy="152.06" r="2.81"/>
      <circle class="cls-1" cx="8.49" cy="148.75" r="2.81"/>
      <circle class="cls-1" cx="10.95" cy="191.43" r="2.81"/>
      <circle class="cls-1" cx="2.81" cy="153.19" r="2.81"/>
      <circle class="cls-1" cx="3.89" cy="159.82" r="2.81"/>
      <circle class="cls-1" cx="5.96" cy="165.98" r="2.81"/>
      <circle class="cls-1" cx="7.59" cy="172.12" r="2.81"/>
      <circle class="cls-1" cx="8.78" cy="178.29" r="2.81"/>
      <circle class="cls-1" cx="10.32" cy="184.86" r="2.81"/>
      <circle class="cls-1" cx="11.59" cy="198.5" r="2.81"/>
      <circle class="cls-1" cx="10.06" cy="206.07" r="2.81"/>
      <circle class="cls-1" cx="14.22" cy="210.47" r="2.81"/>
      <circle class="cls-1" cx="210.77" cy="147.18" r="2.81"/>
      <circle class="cls-1" cx="215.84" cy="143.86" r="2.81"/>
      <circle class="cls-1" cx="213.38" cy="186.54" r="2.81"/>
      <circle class="cls-1" cx="221.52" cy="148.31" r="2.81"/>
      <circle class="cls-1" cx="220.45" cy="154.94" r="2.81"/>
      <circle class="cls-1" cx="218.37" cy="161.1" r="2.81"/>
      <circle class="cls-1" cx="216.74" cy="167.23" r="2.81"/>
      <circle class="cls-1" cx="215.56" cy="173.41" r="2.81"/>
      <circle class="cls-1" cx="214.02" cy="179.98" r="2.81"/>
      <circle class="cls-1" cx="212.75" cy="193.61" r="2.81"/>
      <circle class="cls-1" cx="214.28" cy="201.19" r="2.81"/>
      <circle class="cls-1" cx="210.11" cy="205.58" r="2.81"/>
      <circle class="cls-1" cx="205.81" cy="151.43" r="2.81"/>
      <circle class="cls-1" cx="78.75" cy="221.18" r="1.85"/>
      <circle class="cls-1" cx="77.07" cy="225.45" r="1.85"/>
      <circle class="cls-1" cx="75.64" cy="229.27" r="1.85"/>
      <circle class="cls-1" cx="73.04" cy="232.71" r="1.85"/>
      <circle class="cls-1" cx="69.38" cy="234.93" r="1.85"/>
      <circle class="cls-1" cx="65.44" cy="236.85" r="1.85"/>
      <circle class="cls-1" cx="61.4" cy="238.66" r="1.85"/>
      <circle class="cls-1" cx="57.85" cy="240.84" r="1.85"/>
      <circle class="cls-1" cx="57.85" cy="244.98" r="1.85"/>
      <circle class="cls-1" cx="139.58" cy="219.74" r="1.85"/>
      <circle class="cls-1" cx="142.69" cy="223.21" r="1.85"/>
      <circle class="cls-1" cx="145.81" cy="226.42" r="1.85"/>
      <circle class="cls-1" cx="148.36" cy="229.86" r="1.85"/>
      <circle class="cls-1" cx="151.63" cy="232.71" r="1.85"/>
      <circle class="cls-1" cx="155.43" cy="235.74" r="1.85"/>
      <circle class="cls-1" cx="159.34" cy="238.64" r="1.85"/>
      <circle class="cls-1" cx="162.61" cy="241.87" r="1.85"/>
      <circle class="cls-1" cx="164.29" cy="246.36" r="1.85"/>
      <circle class="cls-1" cx="163.02" cy="250.67" r="1.85"/>
      <circle class="cls-1" cx="20.81" cy="140.95" r="5.91"/>
      <circle class="cls-1" cx="14.7" cy="140.95" r="5.91"/>
      <circle class="cls-1" cx="14.79" cy="131.43" r="5.91"/>
      <circle class="cls-1" cx="23.35" cy="130.64" r="5.91"/>
      <circle class="cls-1" cx="15.98" cy="121.33" r="5.91"/>
      <circle class="cls-1" cx="24.82" cy="120.19" r="5.91"/>
      <circle class="cls-1" cx="16.16" cy="110.9" r="5.91"/>
      <circle class="cls-1" cx="26.34" cy="110.9" r="5.91"/>
      <circle class="cls-1" cx="26.34" cy="99.43" r="5.91"/>
      <circle class="cls-1" cx="16.16" cy="100.32" r="5.91"/>
      <circle class="cls-1" cx="17.95" cy="90.37" r="5.91"/>
      <circle class="cls-1" cx="28.38" cy="91.17" r="5.91"/>
      <circle class="cls-1" cx="17.95" cy="79.67" r="5.91"/>
      <circle class="cls-1" cx="28.38" cy="81.13" r="5.91"/>
      <circle class="cls-1" cx="20.89" cy="69.84" r="5.91"/>
      <circle class="cls-1" cx="31.3" cy="71.43" r="5.91"/>
      <circle class="cls-1" cx="23.35" cy="61.12" r="5.91"/>
      <circle class="cls-1" cx="32.96" cy="63.23" r="5.91"/>
      <circle class="cls-1" cx="26.34" cy="53.26" r="5.91"/>
      <circle class="cls-1" cx="37.2" cy="55.54" r="5.91"/>
      <circle class="cls-1" cx="32.96" cy="43.86" r="5.91"/>
      <circle class="cls-1" cx="43.52" cy="47.74" r="5.91"/>
      <circle class="cls-1" cx="38.87" cy="35.66" r="5.91"/>
      <circle class="cls-1" cx="46.26" cy="27.67" r="5.91"/>
      <circle class="cls-1" cx="50.44" cy="39.36" r="5.91"/>
      <circle class="cls-1" cx="60.23" cy="32.87" r="5.91"/>
      <circle class="cls-1" cx="69.79" cy="39.36" r="5.91"/>
      <circle class="cls-1" cx="69.79" cy="49.77" r="5.91"/>
      <circle class="cls-1" cx="63.49" cy="59.04" r="5.91"/>
      <circle class="cls-1" cx="76.83" cy="59.04" r="5.91"/>
      <circle class="cls-1" cx="80.52" cy="47.74" r="5.91"/>
      <circle class="cls-1" cx="82.74" cy="38.78" r="5.91"/>
      <circle class="cls-1" cx="88.53" cy="56.63" r="5.91"/>
      <circle class="cls-1" cx="94.39" cy="46.66" r="5.91"/>
      <circle class="cls-1" cx="105.28" cy="37.22" r="5.91"/>
      <circle class="cls-1" cx="103.09" cy="53.26" r="5.91"/>
      <circle class="cls-1" cx="113.54" cy="56.63" r="5.91"/>
      <circle class="cls-1" cx="125.95" cy="62.6" r="5.91"/>
      <circle class="cls-1" cx="119.46" cy="46.66" r="5.91"/>
      <circle class="cls-1" cx="127.85" cy="52.42" r="5.91"/>
      <circle class="cls-1" cx="139.39" cy="59.04" r="5.91"/>
      <circle class="cls-1" cx="147.07" cy="49.77" r="5.91"/>
      <circle class="cls-1" cx="136.39" cy="46.2" r="5.91"/>
      <circle class="cls-1" cx="93.58" cy="37.22" r="5.91"/>
      <circle class="cls-1" cx="59.11" cy="20.79" r="8.67"/>
      <circle class="cls-1" cx="75.38" cy="27.67" r="8.67"/>
      <circle class="cls-1" cx="73.73" cy="13.2" r="8.67"/>
      <circle class="cls-1" cx="90.09" cy="27.56" r="8.67"/>
      <circle class="cls-1" cx="90.82" cy="10.5" r="8.67"/>
      <circle class="cls-1" cx="107.88" cy="8.67" r="8.67"/>
      <circle class="cls-1" cx="106.48" cy="24.19" r="8.67"/>
      <circle class="cls-1" cx="119.46" cy="34.03" r="8.67"/>
      <circle class="cls-1" cx="125.4" cy="10.5" r="8.67"/>
      <circle class="cls-1" cx="122.91" cy="24.19" r="8.67"/>
      <circle class="cls-1" cx="108.19" cy="45.2" r="5.91"/>
      <circle class="cls-1" cx="139.39" cy="14.61" r="8.67"/>
      <circle class="cls-1" cx="138.57" cy="29.73" r="8.67"/>
      <circle class="cls-1" cx="133.12" cy="35.66" r="8.67"/>
      <circle class="cls-1" cx="199.42" cy="146.71" r="5.91"/>
      <circle class="cls-1" cx="205.61" cy="142.22" r="5.91"/>
      <circle class="cls-1" cx="205.52" cy="132.7" r="5.91"/>
      <circle class="cls-1" cx="196.59" cy="133.55" r="5.91"/>
      <circle class="cls-1" cx="204.33" cy="122.6" r="5.91"/>
      <circle class="cls-1" cx="195.49" cy="121.46" r="5.91"/>
      <circle class="cls-1" cx="204.15" cy="112.17" r="5.91"/>
      <circle class="cls-1" cx="193.96" cy="112.17" r="5.91"/>
      <circle class="cls-1" cx="193.96" cy="100.7" r="5.91"/>
      <circle class="cls-1" cx="204.15" cy="101.59" r="5.91"/>
      <circle class="cls-1" cx="202.36" cy="91.64" r="5.91"/>
      <circle class="cls-1" cx="191.93" cy="92.44" r="5.91"/>
      <circle class="cls-1" cx="202.36" cy="80.94" r="5.91"/>
      <circle class="cls-1" cx="191.93" cy="82.4" r="5.91"/>
      <circle class="cls-1" cx="199.42" cy="71.11" r="5.91"/>
      <circle class="cls-1" cx="189.01" cy="72.7" r="5.91"/>
      <circle class="cls-1" cx="196.96" cy="62.39" r="5.91"/>
      <circle class="cls-1" cx="187.35" cy="64.5" r="5.91"/>
      <circle class="cls-1" cx="193.96" cy="54.53" r="5.91"/>
      <circle class="cls-1" cx="183.11" cy="56.81" r="5.91"/>
      <circle class="cls-1" cx="176.79" cy="49.01" r="5.91"/>
      <circle class="cls-1" cx="149.5" cy="39.36" r="5.91"/>
      <circle class="cls-1" cx="153.58" cy="18.08" r="5.91"/>
      <circle class="cls-1" cx="153.58" cy="29.73" r="5.91"/>
      <circle class="cls-1" cx="189.01" cy="44.7" r="5.91"/>
      <circle class="cls-1" cx="160.51" cy="42.8" r="5.91"/>
      <circle class="cls-1" cx="169.26" cy="43.93" r="5.91"/>
      <circle class="cls-1" cx="165.21" cy="31.56" r="5.91"/>
      <circle class="cls-1" cx="177.23" cy="28.6" r="5.91"/>
      <circle class="cls-1" cx="166.51" cy="21.5" r="5.91"/>
      <circle class="cls-1" cx="183.11" cy="37.47" r="5.91"/>
      <circle class="cls-1" cx="174.23" cy="38.52" r="5.91"/>
      <circle class="cls-1" cx="221.52" cy="189.6" r="4.83"/>
      <circle class="cls-1" cx="232.37" cy="187.51" r="4.83"/>
      <circle class="cls-1" cx="244.53" cy="184.41" r="4.83"/>
      <circle class="cls-1" cx="256.44" cy="181.69" r="4.83"/>
      <circle class="cls-1" cx="39.8" cy="293.74" r="4.83"/>
      <circle class="cls-1" cx="31.71" cy="301.73" r="4.83"/>
      <circle class="cls-1" cx="23.8" cy="310.58" r="4.83"/>
      <circle class="cls-1" cx="16.42" cy="319.63" r="4.83"/>
    </g>
  </g>
</svg>