<?xml version="1.0" encoding="UTF-8"?>
<svg id="Layer_2" data-name="Layer 2" xmlns="http://www.w3.org/2000/svg" viewBox="0 0 200.53 300.23">
  <defs>
    <style>
      .cls-1 {
        fill: #231f20;
      }
    </style>
  </defs>
  <g id="Layer_2-2" data-name="Layer 2">
    <g>
      <circle class="cls-1" cx="68.27" cy="143.9" r="8.25"/>
      <circle class="cls-1" cx="141.39" cy="137.04" r="2.05"/>
      <circle class="cls-1" cx="146.17" cy="137.04" r="2.05"/>
      <circle class="cls-1" cx="151.42" cy="136.88" r="2.05"/>
      <circle class="cls-1" cx="156.65" cy="137.04" r="2.05"/>
      <circle class="cls-1" cx="161.74" cy="137.04" r="2.05"/>
      <circle class="cls-1" cx="167.01" cy="137.91" r="2.05"/>
      <circle class="cls-1" cx="170.59" cy="141.41" r="2.05"/>
      <circle class="cls-1" cx="174.13" cy="144.62" r="2.05"/>
      <circle class="cls-1" cx="176.56" cy="149.25" r="2.05"/>
      <circle class="cls-1" cx="138.84" cy="142.02" r="2.05"/>
      <circle class="cls-1" cx="136" cy="147.07" r="2.05"/>
      <circle class="cls-1" cx="139.34" cy="151.04" r="2.05"/>
      <circle class="cls-1" cx="144.33" cy="153.41" r="2.05"/>
      <circle class="cls-1" cx="150.25" cy="154.36" r="2.05"/>
      <circle class="cls-1" cx="156.34" cy="154.36" r="2.05"/>
      <circle class="cls-1" cx="161.81" cy="153.8" r="2.05"/>
      <circle class="cls-1" cx="167.76" cy="153.41" r="2.05"/>
      <circle class="cls-1" cx="172.46" cy="151.96" r="2.05"/>
      <circle class="cls-1" cx="80.1" cy="136.32" r="2.05"/>
      <circle class="cls-1" cx="75.32" cy="136.32" r="2.05"/>
      <circle class="cls-1" cx="70.07" cy="136.16" r="2.05"/>
      <circle class="cls-1" cx="64.84" cy="136.32" r="2.05"/>
      <circle class="cls-1" cx="59.76" cy="136.32" r="2.05"/>
      <circle class="cls-1" cx="54.48" cy="137.19" r="2.05"/>
      <circle class="cls-1" cx="50.9" cy="140.69" r="2.05"/>
      <circle class="cls-1" cx="47.37" cy="143.9" r="2.05"/>
      <circle class="cls-1" cx="44.93" cy="148.53" r="2.05"/>
      <circle class="cls-1" cx="82.65" cy="141.3" r="2.05"/>
      <circle class="cls-1" cx="85.49" cy="146.35" r="2.05"/>
      <circle class="cls-1" cx="82.16" cy="150.32" r="2.05"/>
      <circle class="cls-1" cx="76.55" cy="151.87" r="2.05"/>
      <circle class="cls-1" cx="71.25" cy="153.08" r="2.05"/>
      <circle class="cls-1" cx="65.33" cy="153.08" r="2.05"/>
      <circle class="cls-1" cx="59.68" cy="153.08" r="2.05"/>
      <circle class="cls-1" cx="53.73" cy="152.69" r="2.05"/>
      <circle class="cls-1" cx="49.03" cy="151.25" r="2.05"/>
      <circle class="cls-1" cx="95.2" cy="196.36" r="2.05"/>
      <circle class="cls-1" cx="99.9" cy="197.81" r="2.05"/>
      <circle class="cls-1" cx="104.99" cy="198.42" r="2.05"/>
      <path class="cls-1" d="M107.5,199.86c0-1.13,.92-2.05,2.05-2.05s2.05,.92,2.05,2.05c0,1.13-.92,2.05-2.05,2.05s-2.05-.92-2.05-2.05Z"/>
      <path class="cls-1" d="M111.52,202.56c0-1.13,.92-2.05,2.05-2.05s2.05,.92,2.05,2.05c0,1.13-.92,2.05-2.05,2.05s-2.05-.92-2.05-2.05Z"/>
      <path class="cls-1" d="M116.61,202.56c0-1.13,.92-2.05,2.05-2.05s2.05,.92,2.05,2.05-.92,2.05-2.05,2.05-2.05-.92-2.05-2.05Z"/>
      <path class="cls-1" d="M121.72,199.39c0-1.13,.92-2.05,2.05-2.05s2.05,.92,2.05,2.05c0,1.13-.92,2.05-2.05,2.05s-2.05-.92-2.05-2.05Z"/>
      <path class="cls-1" d="M126.83,197.34c0-1.13,.92-2.05,2.05-2.05s2.05,.92,2.05,2.05-.92,2.05-2.05,2.05-2.05-.92-2.05-2.05Z"/>
      <path class="cls-1" d="M132.37,195.29c0-1.13,.92-2.05,2.05-2.05s2.05,.92,2.05,2.05-.92,2.05-2.05,2.05-2.05-.92-2.05-2.05Z"/>
      <path class="cls-1" d="M126.39,136.32c0-1.13,.92-2.05,2.05-2.05s2.05,.92,2.05,2.05c0,1.13-.92,2.05-2.05,2.05s-2.05-.92-2.05-2.05Z"/>
      <path class="cls-1" d="M124.17,140.69c0-.95,.77-1.72,1.72-1.72s1.72,.77,1.72,1.72-.77,1.72-1.72,1.72-1.72-.77-1.72-1.72Z"/>
      <path class="cls-1" d="M122.94,145.35c0-.95,.77-1.72,1.72-1.72s1.72,.77,1.72,1.72c0,.95-.77,1.72-1.72,1.72s-1.72-.77-1.72-1.72Z"/>
      <path class="cls-1" d="M122.86,149.08c0-.72,.58-1.3,1.3-1.3s1.3,.58,1.3,1.3c0,.72-.58,1.3-1.3,1.3s-1.3-.58-1.3-1.3Z"/>
      <path class="cls-1" d="M93.9,191.93c0-.72,.58-1.3,1.3-1.3s1.3,.58,1.3,1.3-.58,1.3-1.3,1.3-1.3-.58-1.3-1.3Z"/>
      <path class="cls-1" d="M95.44,188.25c0-.72,.58-1.3,1.3-1.3s1.3,.58,1.3,1.3-.58,1.3-1.3,1.3-1.3-.58-1.3-1.3Z"/>
      <path class="cls-1" d="M133.12,190.63c0-.72,.58-1.3,1.3-1.3s1.3,.58,1.3,1.3-.58,1.3-1.3,1.3-1.3-.58-1.3-1.3Z"/>
      <path class="cls-1" d="M131.82,186.94c0-.72,.58-1.3,1.3-1.3s1.3,.58,1.3,1.3-.58,1.3-1.3,1.3-1.3-.58-1.3-1.3Z"/>
      <circle class="cls-1" cx="154.2" cy="144.62" r="8.25"/>
      <circle class="cls-1" cx="88.21" cy="226.44" r="2.05"/>
      <circle class="cls-1" cx="93.15" cy="226.66" r="2.05"/>
      <path class="cls-1" d="M96.5,226c0,1.13,.92,2.05,2.05,2.05s2.05-.92,2.05-2.05-.92-2.05-2.05-2.05-2.05,.92-2.05,2.05Z"/>
      <path class="cls-1" d="M101.78,226c0,1.13,.92,2.05,2.05,2.05s2.05-.92,2.05-2.05c0-1.13-.92-2.05-2.05-2.05s-2.05,.92-2.05,2.05Z"/>
      <path class="cls-1" d="M107.5,226c0,1.13,.92,2.05,2.05,2.05s2.05-.92,2.05-2.05c0-1.13-.92-2.05-2.05-2.05s-2.05,.92-2.05,2.05Z"/>
      <path class="cls-1" d="M113.22,226c0,1.13,.92,2.05,2.05,2.05s2.05-.92,2.05-2.05-.92-2.05-2.05-2.05-2.05,.92-2.05,2.05Z"/>
      <path class="cls-1" d="M118.66,226c0,1.13,.92,2.05,2.05,2.05s2.05-.92,2.05-2.05-.92-2.05-2.05-2.05-2.05,.92-2.05,2.05Z"/>
      <path class="cls-1" d="M124.1,226c0,1.13,.92,2.05,2.05,2.05s2.05-.92,2.05-2.05-.92-2.05-2.05-2.05-2.05,.92-2.05,2.05Z"/>
      <circle class="cls-1" cx="131.55" cy="226.33" r="2.05"/>
      <circle class="cls-1" cx="136.96" cy="226.66" r="2.05"/>
      <circle class="cls-1" cx="142.02" cy="226.33" r="1.73"/>
      <circle class="cls-1" cx="83.28" cy="226" r="1.73"/>
      <circle class="cls-1" cx="79.78" cy="225.39" r="1.33"/>
      <circle class="cls-1" cx="145.84" cy="225" r="1.33"/>
      <circle class="cls-1" cx="76.28" cy="224.05" r="1.73"/>
      <circle class="cls-1" cx="74.55" cy="229.63" r="1.14"/>
      <circle class="cls-1" cx="73.41" cy="226.15" r="1.64"/>
      <circle class="cls-1" cx="149.25" cy="227.85" r="1.12"/>
      <circle class="cls-1" cx="147.96" cy="230.75" r="1.23"/>
      <circle class="cls-1" cx="76.28" cy="232.78" r="1.3"/>
      <circle class="cls-1" cx="78.6" cy="236.29" r="1.44"/>
      <circle class="cls-1" cx="81.11" cy="239.67" r="1.42"/>
      <circle class="cls-1" cx="84.57" cy="243.26" r="1.73"/>
      <circle class="cls-1" cx="87.89" cy="246.33" r="1.73"/>
      <circle class="cls-1" cx="92" cy="248.63" r="1.73"/>
      <circle class="cls-1" cx="96.5" cy="251.12" r="1.73"/>
      <circle class="cls-1" cx="100.61" cy="253.99" r="1.73"/>
      <circle class="cls-1" cx="104.99" cy="255.73" r="1.73"/>
      <circle class="cls-1" cx="109.55" cy="256.68" r="1.73"/>
      <circle class="cls-1" cx="114.43" cy="256.68" r="1.73"/>
      <circle class="cls-1" cx="119.05" cy="255.73" r="1.73"/>
      <circle class="cls-1" cx="123.77" cy="254.58" r="1.73"/>
      <circle class="cls-1" cx="128.21" cy="252.26" r="1.73"/>
      <circle class="cls-1" cx="132.74" cy="250.53" r="1.73"/>
      <circle class="cls-1" cx="136.2" cy="247.65" r="1.73"/>
      <circle class="cls-1" cx="139.67" cy="244.59" r="1.73"/>
      <circle class="cls-1" cx="141.7" cy="241.21" r="1.42"/>
      <circle class="cls-1" cx="144.19" cy="237.74" r="1.42"/>
      <circle class="cls-1" cx="146.41" cy="234.08" r="1.41"/>
      <circle class="cls-1" cx="114.43" cy="252.26" r="2.05"/>
      <circle class="cls-1" cx="109.55" cy="252.26" r="2.05"/>
      <circle class="cls-1" cx="104.99" cy="251.44" r="2.05"/>
      <circle class="cls-1" cx="119.05" cy="251.12" r="2.05"/>
      <path class="cls-1" d="M122.05,249.71c0,1.13,.92,2.05,2.05,2.05s2.05-.92,2.05-2.05-.92-2.05-2.05-2.05c-1.13,0-2.05,.92-2.05,2.05Z"/>
      <circle class="cls-1" cx="100.29" cy="248.96" r="2.05"/>
      <circle class="cls-1" cx="104.99" cy="246.33" r="3.04"/>
      <circle class="cls-1" cx="112.37" cy="246.89" r="3.04"/>
      <circle class="cls-1" cx="119.52" cy="246.33" r="3.04"/>
      <circle class="cls-1" cx="126.47" cy="244.59" r="3.04"/>
      <circle class="cls-1" cx="132.74" cy="245.59" r="3.04"/>
      <circle class="cls-1" cx="98.29" cy="244.59" r="3.04"/>
      <circle class="cls-1" cx="93.15" cy="245.92" r="3.04"/>
      <circle class="cls-1" cx="89.04" cy="242.55" r="2.05"/>
      <circle class="cls-1" cx="136.96" cy="242.16" r="2.05"/>
      <circle class="cls-1" cx="128.58" cy="248.63" r="2.05"/>
      <circle class="cls-1" cx="77.16" cy="228.38" r="2.05"/>
      <circle class="cls-1" cx="146.41" cy="227.73" r="2.05"/>
      <path class="cls-1" d="M99.73,223.67c0,1.13,.92,2.05,2.05,2.05s2.05-.92,2.05-2.05c0-1.13-.92-2.05-2.05-2.05s-2.05,.92-2.05,2.05Z"/>
      <path class="cls-1" d="M121.36,223.95c0,1.13,.92,2.05,2.05,2.05s2.05-.92,2.05-2.05c0-1.13-.92-2.05-2.05-2.05s-2.05,.92-2.05,2.05Z"/>
      <path class="cls-1" d="M104.68,222.95c0,1.13,.92,2.05,2.05,2.05s2.05-.92,2.05-2.05c0-1.13-.92-2.05-2.05-2.05s-2.05,.92-2.05,2.05Z"/>
      <path class="cls-1" d="M116.61,222.95c0,1.13,.92,2.05,2.05,2.05s2.05-.92,2.05-2.05-.92-2.05-2.05-2.05-2.05,.92-2.05,2.05Z"/>
      <path class="cls-1" d="M110.32,222.54c0,1.13,.92,2.05,2.05,2.05s2.05-.92,2.05-2.05-.92-2.05-2.05-2.05-2.05,.92-2.05,2.05Z"/>
      <path class="cls-1" d="M126.83,224.6c0,1.13,.92,2.05,2.05,2.05s2.05-.92,2.05-2.05-.92-2.05-2.05-2.05-2.05,.92-2.05,2.05Z"/>
      <path class="cls-1" d="M132.37,225.68c0,1.13,.92,2.05,2.05,2.05s2.05-.92,2.05-2.05-.92-2.05-2.05-2.05-2.05,.92-2.05,2.05Z"/>
      <path class="cls-1" d="M94.18,225.61c0,1.13,.92,2.05,2.05,2.05s2.05-.92,2.05-2.05-.92-2.05-2.05-2.05-2.05,.92-2.05,2.05Z"/>
      <path class="cls-1" d="M88.21,225.39c0,1.13,.92,2.05,2.05,2.05s2.05-.92,2.05-2.05-.92-2.05-2.05-2.05-2.05,.92-2.05,2.05Z"/>
      <path class="cls-1" d="M19.31,178.86c0-.95,.77-1.72,1.72-1.72s1.72,.77,1.72,1.72c0,.95-.77,1.72-1.72,1.72s-1.72-.77-1.72-1.72Z"/>
      <path class="cls-1" d="M19.31,183.22c0-.95,.77-1.72,1.72-1.72s1.72,.77,1.72,1.72c0,.95-.77,1.72-1.72,1.72s-1.72-.77-1.72-1.72Z"/>
      <path class="cls-1" d="M19.31,187.97c0-.95,.77-1.72,1.72-1.72s1.72,.77,1.72,1.72c0,.95-.77,1.72-1.72,1.72s-1.72-.77-1.72-1.72Z"/>
      <path class="cls-1" d="M92.08,127.4c0-.95,.77-1.72,1.72-1.72s1.72,.77,1.72,1.72-.77,1.72-1.72,1.72-1.72-.77-1.72-1.72Z"/>
      <path class="cls-1" d="M86.61,124.9c0-1.38,1.12-2.5,2.5-2.5s2.5,1.12,2.5,2.5-1.12,2.5-2.5,2.5c-1.38,0-2.5-1.12-2.5-2.5Z"/>
      <path class="cls-1" d="M78.69,123.22c0-1.85,1.5-3.34,3.34-3.34s3.34,1.5,3.34,3.34-1.5,3.34-3.34,3.34c-1.85,0-3.34-1.5-3.34-3.34Z"/>
      <path class="cls-1" d="M70.83,122.41c0-1.98,1.6-3.58,3.58-3.58s3.58,1.6,3.58,3.58c0,1.98-1.6,3.58-3.58,3.58-1.98,0-3.58-1.6-3.58-3.58Z"/>
      <path class="cls-1" d="M60.54,122.41c0-2.65,2.14-4.79,4.79-4.79s4.79,2.14,4.79,4.79-2.14,4.79-4.79,4.79c-2.65,0-4.79-2.14-4.79-4.79Z"/>
      <path class="cls-1" d="M52.21,123.45c0-1.98,1.6-3.58,3.58-3.58s3.58,1.6,3.58,3.58-1.6,3.58-3.58,3.58c-1.98,0-3.58-1.6-3.58-3.58Z"/>
      <path class="cls-1" d="M44.93,124.9c0-1.85,1.5-3.34,3.34-3.34s3.34,1.5,3.34,3.34-1.5,3.34-3.34,3.34c-1.85,0-3.34-1.5-3.34-3.34Z"/>
      <path class="cls-1" d="M40.56,127.4c0-.95,.77-1.72,1.72-1.72s1.72,.77,1.72,1.72-.77,1.72-1.72,1.72-1.72-.77-1.72-1.72Z"/>
      <circle class="cls-1" cx="132.76" cy="129.47" r="1.72"/>
      <circle class="cls-1" cx="137.46" cy="126.98" r="2.5"/>
      <circle class="cls-1" cx="144.53" cy="125.29" r="3.34"/>
      <circle class="cls-1" cx="152.16" cy="124.48" r="3.58"/>
      <circle class="cls-1" cx="161.23" cy="124.48" r="4.79"/>
      <circle class="cls-1" cx="170.77" cy="125.53" r="3.58"/>
      <circle class="cls-1" cx="178.29" cy="126.98" r="3.34"/>
      <circle class="cls-1" cx="184.28" cy="129.47" r="1.72"/>
      <path class="cls-1" d="M19.96,192.72c0-.95,.77-1.72,1.72-1.72s1.72,.77,1.72,1.72-.77,1.72-1.72,1.72-1.72-.77-1.72-1.72Z"/>
      <path class="cls-1" d="M20.49,197.59c0-.95,.77-1.72,1.72-1.72s1.72,.77,1.72,1.72c0,.95-.77,1.72-1.72,1.72s-1.72-.77-1.72-1.72Z"/>
      <path class="cls-1" d="M21.04,202.46c0-.95,.77-1.72,1.72-1.72s1.72,.77,1.72,1.72-.77,1.72-1.72,1.72-1.72-.77-1.72-1.72Z"/>
      <path class="cls-1" d="M21.68,207.75c0-.95,.77-1.72,1.72-1.72s1.72,.77,1.72,1.72-.77,1.72-1.72,1.72-1.72-.77-1.72-1.72Z"/>
      <path class="cls-1" d="M22.76,212.21c0-.95,.77-1.72,1.72-1.72s1.72,.77,1.72,1.72-.77,1.72-1.72,1.72-1.72-.77-1.72-1.72Z"/>
      <path class="cls-1" d="M23.33,216.94c0-.95,.77-1.72,1.72-1.72s1.72,.77,1.72,1.72-.77,1.72-1.72,1.72-1.72-.77-1.72-1.72Z"/>
      <path class="cls-1" d="M25.05,221.68c0-.95,.77-1.72,1.72-1.72s1.72,.77,1.72,1.72-.77,1.72-1.72,1.72-1.72-.77-1.72-1.72Z"/>
      <circle class="cls-1" cx="28.5" cy="226.5" r="1.72"/>
      <path class="cls-1" d="M29.29,230.78c0-.95,.77-1.72,1.72-1.72s1.72,.77,1.72,1.72-.77,1.72-1.72,1.72c-.95,0-1.72-.77-1.72-1.72Z"/>
      <circle class="cls-1" cx="33.62" cy="235.07" r="1.72"/>
      <path class="cls-1" d="M34.66,239.55c0-.95,.77-1.72,1.72-1.72s1.72,.77,1.72,1.72-.77,1.72-1.72,1.72c-.95,0-1.72-.77-1.72-1.72Z"/>
      <path class="cls-1" d="M37.36,244.04c0-.95,.77-1.72,1.72-1.72s1.72,.77,1.72,1.72-.77,1.72-1.72,1.72c-.95,0-1.72-.77-1.72-1.72Z"/>
      <path class="cls-1" d="M40.06,248.21c0-.95,.77-1.72,1.72-1.72s1.72,.77,1.72,1.72-.77,1.72-1.72,1.72c-.95,0-1.72-.77-1.72-1.72Z"/>
      <circle class="cls-1" cx="44.48" cy="251.99" r="1.72"/>
      <circle class="cls-1" cx="47.93" cy="256.41" r="1.72"/>
      <circle class="cls-1" cx="51.24" cy="260.83" r="1.72"/>
      <circle class="cls-1" cx="54.04" cy="265.25" r="1.72"/>
      <circle class="cls-1" cx="56.91" cy="269.66" r="1.72"/>
      <circle class="cls-1" cx="60.36" cy="273.11" r="1.72"/>
      <path class="cls-1" d="M62.08,276.55c0-.95,.77-1.72,1.72-1.72s1.72,.77,1.72,1.72-.77,1.72-1.72,1.72-1.72-.77-1.72-1.72Z"/>
      <circle class="cls-1" cx="67.94" cy="280" r="1.72"/>
      <circle class="cls-1" cx="71.81" cy="282.91" r="1.72"/>
      <path class="cls-1" d="M73.96,286.36c0-.95,.77-1.72,1.72-1.72s1.72,.77,1.72,1.72-.77,1.72-1.72,1.72c-.95,0-1.72-.77-1.72-1.72Z"/>
      <path class="cls-1" d="M78.67,289.19c0-.95,.77-1.72,1.72-1.72s1.72,.77,1.72,1.72-.77,1.72-1.72,1.72c-.95,0-1.72-.77-1.72-1.72Z"/>
      <circle class="cls-1" cx="84.66" cy="291.56" r="1.72"/>
      <circle class="cls-1" cx="89.85" cy="294.01" r="1.72"/>
      <circle class="cls-1" cx="95.03" cy="296.38" r="1.72"/>
      <path class="cls-1" d="M98.24,297.46c0-.95,.77-1.72,1.72-1.72s1.72,.77,1.72,1.72c0,.95-.77,1.72-1.72,1.72-.95,0-1.72-.77-1.72-1.72Z"/>
      <circle class="cls-1" cx="104.99" cy="298.1" r="1.72"/>
      <circle class="cls-1" cx="109.55" cy="298.1" r="1.72"/>
      <circle class="cls-1" cx="114.43" cy="298.1" r="1.72"/>
      <circle class="cls-1" cx="119.05" cy="298.1" r="1.72"/>
      <circle class="cls-1" cx="124.1" cy="298.1" r="1.72"/>
      <path class="cls-1" d="M127.18,297.46c0-.95,.77-1.72,1.72-1.72s1.72,.77,1.72,1.72-.77,1.72-1.72,1.72c-.95,0-1.72-.77-1.72-1.72Z"/>
      <path class="cls-1" d="M131.49,294.65c0-.95,.77-1.72,1.72-1.72s1.72,.77,1.72,1.72-.77,1.72-1.72,1.72c-.95,0-1.72-.77-1.72-1.72Z"/>
      <circle class="cls-1" cx="137.21" cy="291.56" r="1.72"/>
      <circle class="cls-1" cx="141.13" cy="289.1" r="1.72"/>
      <circle class="cls-1" cx="144.57" cy="285.66" r="1.72"/>
      <circle class="cls-1" cx="148.13" cy="282.74" r="1.72"/>
      <path class="cls-1" d="M149.85,279.65c0-.95,.77-1.72,1.72-1.72s1.72,.77,1.72,1.72c0,.95-.77,1.72-1.72,1.72-.95,0-1.72-.77-1.72-1.72Z"/>
      <path class="cls-1" d="M153.3,275.74c0-.95,.77-1.72,1.72-1.72s1.72,.77,1.72,1.72-.77,1.72-1.72,1.72-1.72-.77-1.72-1.72Z"/>
      <path class="cls-1" d="M156.31,271.83c0-.95,.77-1.72,1.72-1.72s1.72,.77,1.72,1.72-.77,1.72-1.72,1.72c-.95,0-1.72-.77-1.72-1.72Z"/>
      <path class="cls-1" d="M159.13,267.92c0-.95,.77-1.72,1.72-1.72s1.72,.77,1.72,1.72-.77,1.72-1.72,1.72c-.95,0-1.72-.77-1.72-1.72Z"/>
      <circle class="cls-1" cx="163.94" cy="264.01" r="1.72"/>
      <circle class="cls-1" cx="167.04" cy="260.1" r="1.72"/>
      <path class="cls-1" d="M167.4,255.1c0-.95,.77-1.72,1.72-1.72s1.72,.77,1.72,1.72-.77,1.72-1.72,1.72-1.72-.77-1.72-1.72Z"/>
      <path class="cls-1" d="M169.49,250.85c0-.95,.77-1.72,1.72-1.72s1.72,.77,1.72,1.72-.77,1.72-1.72,1.72-1.72-.77-1.72-1.72Z"/>
      <circle class="cls-1" cx="173.9" cy="246.8" r="1.72"/>
      <circle class="cls-1" cx="175.62" cy="242.21" r="1.72"/>
      <path class="cls-1" d="M175.62,238.1c0-.95,.77-1.72,1.72-1.72s1.72,.77,1.72,1.72-.77,1.72-1.72,1.72c-.95,0-1.72-.77-1.72-1.72Z"/>
      <circle class="cls-1" cx="179.06" cy="233.49" r="1.72"/>
      <path class="cls-1" d="M179.06,228.89c0-.95,.77-1.72,1.72-1.72s1.72,.77,1.72,1.72-.77,1.72-1.72,1.72c-.95,0-1.72-.77-1.72-1.72Z"/>
      <path class="cls-1" d="M180.13,224.28c0-.95,.77-1.72,1.72-1.72s1.72,.77,1.72,1.72-.77,1.72-1.72,1.72c-.95,0-1.72-.77-1.72-1.72Z"/>
      <path class="cls-1" d="M180.79,219.67c0-.95,.77-1.72,1.72-1.72s1.72,.77,1.72,1.72c0,.95-.77,1.72-1.72,1.72s-1.72-.77-1.72-1.72Z"/>
      <path class="cls-1" d="M181.85,215.66c0-.95,.77-1.72,1.72-1.72s1.72,.77,1.72,1.72-.77,1.72-1.72,1.72-1.72-.77-1.72-1.72Z"/>
      <path class="cls-1" d="M182.51,211.06c0-.95,.77-1.72,1.72-1.72s1.72,.77,1.72,1.72-.77,1.72-1.72,1.72-1.72-.77-1.72-1.72Z"/>
      <path class="cls-1" d="M183.58,206.46c0-.95,.77-1.72,1.72-1.72s1.72,.77,1.72,1.72-.77,1.72-1.72,1.72-1.72-.77-1.72-1.72Z"/>
      <path class="cls-1" d="M184.23,201.44c0-.95,.77-1.72,1.72-1.72s1.72,.77,1.72,1.72-.77,1.72-1.72,1.72-1.72-.77-1.72-1.72Z"/>
      <path class="cls-1" d="M185.3,196.69c0-.95,.77-1.72,1.72-1.72s1.72,.77,1.72,1.72-.77,1.72-1.72,1.72-1.72-.77-1.72-1.72Z"/>
      <path class="cls-1" d="M185.96,191.93c0-.95,.77-1.72,1.72-1.72s1.72,.77,1.72,1.72-.77,1.72-1.72,1.72-1.72-.77-1.72-1.72Z"/>
      <path class="cls-1" d="M186.77,187.95c0-.95,.77-1.72,1.72-1.72s1.72,.77,1.72,1.72-.77,1.72-1.72,1.72-1.72-.77-1.72-1.72Z"/>
      <path class="cls-1" d="M18.77,214.2c0-.95,.77-1.72,1.72-1.72s1.72,.77,1.72,1.72-.77,1.72-1.72,1.72-1.72-.77-1.72-1.72Z"/>
      <path class="cls-1" d="M14.96,212.21c0-.95,.77-1.72,1.72-1.72s1.72,.77,1.72,1.72-.77,1.72-1.72,1.72-1.72-.77-1.72-1.72Z"/>
      <path class="cls-1" d="M12.44,208.76c0-.95,.77-1.72,1.72-1.72s1.72,.77,1.72,1.72-.77,1.72-1.72,1.72-1.72-.77-1.72-1.72Z"/>
      <path class="cls-1" d="M9.7,204.31c0-.95,.77-1.72,1.72-1.72s1.72,.77,1.72,1.72-.77,1.72-1.72,1.72-1.72-.77-1.72-1.72Z"/>
      <path class="cls-1" d="M7.52,200.28c0-.95,.77-1.72,1.72-1.72s1.72,.77,1.72,1.72-.77,1.72-1.72,1.72-1.72-.77-1.72-1.72Z"/>
      <path class="cls-1" d="M5.79,196.25c0-.95,.77-1.72,1.72-1.72s1.72,.77,1.72,1.72-.77,1.72-1.72,1.72-1.72-.77-1.72-1.72Z"/>
      <path class="cls-1" d="M4.58,192.22c0-.95,.77-1.72,1.72-1.72s1.72,.77,1.72,1.72-.77,1.72-1.72,1.72-1.72-.77-1.72-1.72Z"/>
      <path class="cls-1" d="M3.45,187.3c0-.95,.77-1.72,1.72-1.72s1.72,.77,1.72,1.72-.77,1.72-1.72,1.72-1.72-.77-1.72-1.72Z"/>
      <path class="cls-1" d="M2.86,182.39c0-.95,.77-1.72,1.72-1.72s1.72,.77,1.72,1.72-.77,1.72-1.72,1.72-1.72-.77-1.72-1.72Z"/>
      <path class="cls-1" d="M1.72,177.67c0-.95,.77-1.72,1.72-1.72s1.72,.77,1.72,1.72-.77,1.72-1.72,1.72-1.72-.77-1.72-1.72Z"/>
      <path class="cls-1" d="M1.14,172.95c0-.95,.77-1.72,1.72-1.72s1.72,.77,1.72,1.72-.77,1.72-1.72,1.72-1.72-.77-1.72-1.72Z"/>
      <path class="cls-1" d="M0,168.72c0-.95,.77-1.72,1.72-1.72s1.72,.77,1.72,1.72-.77,1.72-1.72,1.72-1.72-.77-1.72-1.72Z"/>
      <path class="cls-1" d="M0,164.01c0-.95,.77-1.72,1.72-1.72s1.72,.77,1.72,1.72-.77,1.72-1.72,1.72-1.72-.77-1.72-1.72Z"/>
      <path class="cls-1" d="M0,159.39c0-.95,.77-1.72,1.72-1.72s1.72,.77,1.72,1.72-.77,1.72-1.72,1.72-1.72-.77-1.72-1.72Z"/>
      <path class="cls-1" d="M.6,154.76c0-.95,.77-1.72,1.72-1.72s1.72,.77,1.72,1.72-.77,1.72-1.72,1.72-1.72-.77-1.72-1.72Z"/>
      <path class="cls-1" d="M2.86,150.26c0-.95,.77-1.72,1.72-1.72s1.72,.77,1.72,1.72-.77,1.72-1.72,1.72-1.72-.77-1.72-1.72Z"/>
      <path class="cls-1" d="M6.3,148c0-.95,.77-1.72,1.72-1.72s1.72,.77,1.72,1.72-.77,1.72-1.72,1.72-1.72-.77-1.72-1.72Z"/>
      <path class="cls-1" d="M10.09,150.26c0-.95,.77-1.72,1.72-1.72s1.72,.77,1.72,1.72-.77,1.72-1.72,1.72-1.72-.77-1.72-1.72Z"/>
      <path class="cls-1" d="M12.63,154.76c0-.95,.77-1.72,1.72-1.72s1.72,.77,1.72,1.72c0,.95-.77,1.72-1.72,1.72s-1.72-.77-1.72-1.72Z"/>
      <path class="cls-1" d="M13.29,159.39c0-.95,.77-1.72,1.72-1.72s1.72,.77,1.72,1.72-.77,1.72-1.72,1.72-1.72-.77-1.72-1.72Z"/>
      <path class="cls-1" d="M13.8,164.47c0-.95,.77-1.72,1.72-1.72s1.72,.77,1.72,1.72-.77,1.72-1.72,1.72-1.72-.77-1.72-1.72Z"/>
      <path class="cls-1" d="M5.79,159.39c0-.77,.62-1.39,1.39-1.39s1.39,.62,1.39,1.39c0,.77-.62,1.39-1.39,1.39s-1.39-.62-1.39-1.39Z"/>
      <path class="cls-1" d="M7.19,162.74c0-.77,.62-1.39,1.39-1.39s1.39,.62,1.39,1.39-.62,1.39-1.39,1.39-1.39-.62-1.39-1.39Z"/>
      <path class="cls-1" d="M7.19,166.19c0-.77,.62-1.39,1.39-1.39s1.39,.62,1.39,1.39-.62,1.39-1.39,1.39-1.39-.62-1.39-1.39Z"/>
      <path class="cls-1" d="M5.79,170.44c0-.77,.62-1.39,1.39-1.39s1.39,.62,1.39,1.39c0,.77-.62,1.39-1.39,1.39s-1.39-.62-1.39-1.39Z"/>
      <path class="cls-1" d="M7.09,174.67c0-.77,.62-1.39,1.39-1.39s1.39,.62,1.39,1.39-.62,1.39-1.39,1.39-1.39-.62-1.39-1.39Z"/>
      <path class="cls-1" d="M9.57,177.28c0-.77,.62-1.39,1.39-1.39s1.39,.62,1.39,1.39c0,.77-.62,1.39-1.39,1.39s-1.39-.62-1.39-1.39Z"/>
      <path class="cls-1" d="M12.58,180.11c0-.77,.62-1.39,1.39-1.39s1.39,.62,1.39,1.39-.62,1.39-1.39,1.39-1.39-.62-1.39-1.39Z"/>
      <path class="cls-1" d="M13.57,183.71c0-.77,.62-1.39,1.39-1.39s1.39,.62,1.39,1.39-.62,1.39-1.39,1.39-1.39-.62-1.39-1.39Z"/>
      <path class="cls-1" d="M13.57,187.3c0-.77,.62-1.39,1.39-1.39s1.39,.62,1.39,1.39-.62,1.39-1.39,1.39-1.39-.62-1.39-1.39Z"/>
      <path class="cls-1" d="M12.18,191c0-.77,.62-1.39,1.39-1.39s1.39,.62,1.39,1.39-.62,1.39-1.39,1.39-1.39-.62-1.39-1.39Z"/>
      <path class="cls-1" d="M3.78,163.08c0-.77,.62-1.39,1.39-1.39s1.39,.62,1.39,1.39-.62,1.39-1.39,1.39-1.39-.62-1.39-1.39Z"/>
      <path class="cls-1" d="M17.72,173.92c0-1.21,.98-2.19,2.19-2.19s2.19,.98,2.19,2.19-.98,2.19-2.19,2.19-2.19-.98-2.19-2.19Z"/>
      <path class="cls-1" d="M17.47,168.17c0-1.35,1.09-2.44,2.44-2.44s2.44,1.09,2.44,2.44-1.09,2.44-2.44,2.44c-1.35,0-2.44-1.09-2.44-2.44Z"/>
      <path class="cls-1" d="M17.24,162.74c0-1.35,1.09-2.44,2.44-2.44s2.44,1.09,2.44,2.44-1.09,2.44-2.44,2.44c-1.35,0-2.44-1.09-2.44-2.44Z"/>
      <path class="cls-1" d="M17.24,157.32c0-1.35,1.09-2.44,2.44-2.44s2.44,1.09,2.44,2.44-1.09,2.44-2.44,2.44c-1.35,0-2.44-1.09-2.44-2.44Z"/>
      <path class="cls-1" d="M16.01,151.25c0-1.82,1.48-3.3,3.3-3.3s3.3,1.48,3.3,3.3c0,1.82-1.48,3.3-3.3,3.3-1.82,0-3.3-1.48-3.3-3.3Z"/>
      <path class="cls-1" d="M14.42,144.31c0-1.82,1.48-3.3,3.3-3.3s3.3,1.48,3.3,3.3-1.48,3.3-3.3,3.3c-1.82,0-3.3-1.48-3.3-3.3Z"/>
      <path class="cls-1" d="M6.79,139.33c0-1.82,1.48-3.3,3.3-3.3s3.3,1.48,3.3,3.3c0,1.82-1.48,3.3-3.3,3.3-1.82,0-3.3-1.48-3.3-3.3Z"/>
      <path class="cls-1" d="M14.17,138.95c0-1.82,1.48-3.3,3.3-3.3s3.3,1.48,3.3,3.3-1.48,3.3-3.3,3.3c-1.82,0-3.3-1.48-3.3-3.3Z"/>
      <circle class="cls-1" cx="10.09" cy="133.89" r="3.3" transform="translate(-28.98 5.43) rotate(-12.61)"/>
      <circle class="cls-1" cx="15.6" cy="129.09" r="3.3" transform="translate(-105.65 82.12) rotate(-61.93)"/>
      <path class="cls-1" d="M15.51,132.72c0-1.82,1.48-3.3,3.3-3.3s3.3,1.48,3.3,3.3c0,1.82-1.48,3.3-3.3,3.3-1.82,0-3.3-1.48-3.3-3.3Z"/>
      <path class="cls-1" d="M11.72,121.56c0-1.82,1.48-3.3,3.3-3.3s3.3,1.48,3.3,3.3-1.48,3.3-3.3,3.3c-1.82,0-3.3-1.48-3.3-3.3Z"/>
      <path class="cls-1" d="M16.17,125.21c0-1.82,1.48-3.3,3.3-3.3s3.3,1.48,3.3,3.3c0,1.82-1.48,3.3-3.3,3.3-1.82,0-3.3-1.48-3.3-3.3Z"/>
      <path class="cls-1" d="M6.54,127.06c0-1.82,1.48-3.3,3.3-3.3s3.3,1.48,3.3,3.3-1.48,3.3-3.3,3.3c-1.82,0-3.3-1.48-3.3-3.3Z"/>
      <path class="cls-1" d="M6.57,121.56c0-1.82,1.48-3.3,3.3-3.3s3.3,1.48,3.3,3.3c0,1.82-1.48,3.3-3.3,3.3-1.82,0-3.3-1.48-3.3-3.3Z"/>
      <path class="cls-1" d="M10.81,114.85c0-2.91,2.36-5.27,5.27-5.27s5.27,2.36,5.27,5.27c0,2.91-2.36,5.27-5.27,5.27-2.91,0-5.27-2.36-5.27-5.27Z"/>
      <path class="cls-1" d="M11.4,105.5c0-2.91,2.36-5.27,5.27-5.27s5.27,2.36,5.27,5.27c0,2.91-2.36,5.27-5.27,5.27-2.91,0-5.27-2.36-5.27-5.27Z"/>
      <path class="cls-1" d="M11.98,95.8c0-2.91,2.36-5.27,5.27-5.27s5.27,2.36,5.27,5.27c0,2.91-2.36,5.27-5.27,5.27-2.91,0-5.27-2.36-5.27-5.27Z"/>
      <path class="cls-1" d="M13.63,86.06c0-2.91,2.36-5.27,5.27-5.27s5.27,2.36,5.27,5.27c0,2.91-2.36,5.27-5.27,5.27-2.91,0-5.27-2.36-5.27-5.27Z"/>
      <path class="cls-1" d="M11.98,76.75c0-2.91,2.36-5.27,5.27-5.27s5.27,2.36,5.27,5.27c0,2.91-2.36,5.27-5.27,5.27-2.91,0-5.27-2.36-5.27-5.27Z"/>
      <path class="cls-1" d="M13.05,66.22c0-2.91,2.36-5.27,5.27-5.27s5.27,2.36,5.27,5.27c0,2.91-2.36,5.27-5.27,5.27-2.91,0-5.27-2.36-5.27-5.27Z"/>
      <path class="cls-1" d="M22.82,62.76c0-2.91,2.36-5.27,5.27-5.27s5.27,2.36,5.27,5.27c0,2.91-2.36,5.27-5.27,5.27-2.91,0-5.27-2.36-5.27-5.27Z"/>
      <path class="cls-1" d="M20.65,55.68c0-2.91,2.36-5.27,5.27-5.27s5.27,2.36,5.27,5.27c0,2.91-2.36,5.27-5.27,5.27-2.91,0-5.27-2.36-5.27-5.27Z"/>
      <path class="cls-1" d="M31.18,55.68c0-2.91,2.36-5.27,5.27-5.27s5.27,2.36,5.27,5.27c0,2.91-2.36,5.27-5.27,5.27-2.91,0-5.27-2.36-5.27-5.27Z"/>
      <path class="cls-1" d="M29.08,48.2c0-2.91,2.36-5.27,5.27-5.27s5.27,2.36,5.27,5.27c0,2.91-2.36,5.27-5.27,5.27-2.91,0-5.27-2.36-5.27-5.27Z"/>
      <path class="cls-1" d="M37.01,43.67c0-2.91,2.36-5.27,5.27-5.27s5.27,2.36,5.27,5.27c0,2.91-2.36,5.27-5.27,5.27-2.91,0-5.27-2.36-5.27-5.27Z"/>
      <path class="cls-1" d="M39.66,48.94c0-2.91,2.36-5.27,5.27-5.27s5.27,2.36,5.27,5.27c0,2.91-2.36,5.27-5.27,5.27-2.91,0-5.27-2.36-5.27-5.27Z"/>
      <path class="cls-1" d="M46.35,37.66c0-2.91,2.36-5.27,5.27-5.27s5.27,2.36,5.27,5.27c0,2.91-2.36,5.27-5.27,5.27-2.91,0-5.27-2.36-5.27-5.27Z"/>
      <path class="cls-1" d="M48.28,46.45c0-2.91,2.36-5.27,5.27-5.27s5.27,2.36,5.27,5.27c0,2.91-2.36,5.27-5.27,5.27-2.91,0-5.27-2.36-5.27-5.27Z"/>
      <path class="cls-1" d="M55.17,31.35c0-4,3.24-7.25,7.25-7.25s7.25,3.24,7.25,7.25c0,4-3.24,7.25-7.25,7.25-4,0-7.25-3.24-7.25-7.25Z"/>
      <path class="cls-1" d="M62.63,23.71c0-4,3.24-7.25,7.25-7.25s7.25,3.24,7.25,7.25c0,4-3.24,7.25-7.25,7.25-4,0-7.25-3.24-7.25-7.25Z"/>
      <path class="cls-1" d="M73.3,29.75c0-4,3.24-7.25,7.25-7.25s7.25,3.24,7.25,7.25c0,4-3.24,7.25-7.25,7.25-4,0-7.25-3.24-7.25-7.25Z"/>
      <path class="cls-1" d="M75.64,18.61c0-4,3.24-7.25,7.25-7.25s7.25,3.24,7.25,7.25c0,4-3.24,7.25-7.25,7.25-4,0-7.25-3.24-7.25-7.25Z"/>
      <path class="cls-1" d="M84.44,25.86c0-4,3.24-7.25,7.25-7.25s7.25,3.24,7.25,7.25c0,4-3.24,7.25-7.25,7.25-4,0-7.25-3.24-7.25-7.25Z"/>
      <path class="cls-1" d="M93.81,20.47c0-4,3.24-7.25,7.25-7.25s7.25,3.24,7.25,7.25c0,4-3.24,7.25-7.25,7.25-4,0-7.25-3.24-7.25-7.25Z"/>
      <path class="cls-1" d="M101.05,30.96c0-4,3.24-7.25,7.25-7.25s7.25,3.24,7.25,7.25c0,4-3.24,7.25-7.25,7.25-4,0-7.25-3.24-7.25-7.25Z"/>
      <path class="cls-1" d="M106.02,18.61c0-4,3.24-7.25,7.25-7.25s7.25,3.24,7.25,7.25c0,4-3.24,7.25-7.25,7.25-4,0-7.25-3.24-7.25-7.25Z"/>
      <path class="cls-1" d="M113.73,26.32c0-4,3.24-7.25,7.25-7.25s7.25,3.24,7.25,7.25c0,4-3.24,7.25-7.25,7.25-4,0-7.25-3.24-7.25-7.25Z"/>
      <path class="cls-1" d="M125.51,34.96c0-4,3.24-7.25,7.25-7.25s7.25,3.24,7.25,7.25c0,4-3.24,7.25-7.25,7.25-4,0-7.25-3.24-7.25-7.25Z"/>
      <path class="cls-1" d="M123.79,22.5c0-4,3.24-7.25,7.25-7.25s7.25,3.24,7.25,7.25c0,4-3.24,7.25-7.25,7.25-4,0-7.25-3.24-7.25-7.25Z"/>
      <path class="cls-1" d="M136.19,30.96c0-4,3.24-7.25,7.25-7.25s7.25,3.24,7.25,7.25c0,4-3.24,7.25-7.25,7.25-4,0-7.25-3.24-7.25-7.25Z"/>
      <path class="cls-1" d="M137.29,42.93c0-4,3.24-7.25,7.25-7.25s7.25,3.24,7.25,7.25c0,4-3.24,7.25-7.25,7.25-4,0-7.25-3.24-7.25-7.25Z"/>
      <path class="cls-1" d="M149.2,35.69c0-4,3.24-7.25,7.25-7.25s7.25,3.24,7.25,7.25c0,4-3.24,7.25-7.25,7.25-4,0-7.25-3.24-7.25-7.25Z"/>
      <path class="cls-1" d="M134.7,24.11c0-4,3.24-7.25,7.25-7.25s7.25,3.24,7.25,7.25c0,4-3.24,7.25-7.25,7.25-4,0-7.25-3.24-7.25-7.25Z"/>
      <path class="cls-1" d="M55.39,39.64c0-4,3.24-7.25,7.25-7.25s7.25,3.24,7.25,7.25c0,4-3.24,7.25-7.25,7.25-4,0-7.25-3.24-7.25-7.25Z"/>
      <path class="cls-1" d="M152.16,45.98c0-2.91,2.36-5.27,5.27-5.27s5.27,2.36,5.27,5.27c0,2.91-2.36,5.27-5.27,5.27-2.91,0-5.27-2.36-5.27-5.27Z"/>
      <path class="cls-1" d="M159.48,42.93c0-2.91,2.36-5.27,5.27-5.27s5.27,2.36,5.27,5.27c0,2.91-2.36,5.27-5.27,5.27-2.91,0-5.27-2.36-5.27-5.27Z"/>
      <path class="cls-1" d="M161.93,50.9c0-2.91,2.36-5.27,5.27-5.27s5.27,2.36,5.27,5.27c0,2.91-2.36,5.27-5.27,5.27-2.91,0-5.27-2.36-5.27-5.27Z"/>
      <path class="cls-1" d="M169.08,50.18c0-2.91,2.36-5.27,5.27-5.27s5.27,2.36,5.27,5.27c0,2.91-2.36,5.27-5.27,5.27-2.91,0-5.27-2.36-5.27-5.27Z"/>
      <path class="cls-1" d="M165.6,58.86c0-2.91,2.36-5.27,5.27-5.27s5.27,2.36,5.27,5.27c0,2.91-2.36,5.27-5.27,5.27-2.91,0-5.27-2.36-5.27-5.27Z"/>
      <path class="cls-1" d="M174.35,58.86c0-2.91,2.36-5.27,5.27-5.27s5.27,2.36,5.27,5.27c0,2.91-2.36,5.27-5.27,5.27-2.91,0-5.27-2.36-5.27-5.27Z"/>
      <path class="cls-1" d="M177.29,68.66c0-2.91,2.36-5.27,5.27-5.27s5.27,2.36,5.27,5.27c0,2.91-2.36,5.27-5.27,5.27-2.91,0-5.27-2.36-5.27-5.27Z"/>
      <path class="cls-1" d="M181.43,76.12c0-2.91,2.36-5.27,5.27-5.27s5.27,2.36,5.27,5.27c0,2.91-2.36,5.27-5.27,5.27-2.91,0-5.27-2.36-5.27-5.27Z"/>
      <path class="cls-1" d="M185.85,86.06c0-2.91,2.36-5.27,5.27-5.27s5.27,2.36,5.27,5.27c0,2.91-2.36,5.27-5.27,5.27-2.91,0-5.27-2.36-5.27-5.27Z"/>
      <path class="cls-1" d="M186.69,95.8c0-2.91,2.36-5.27,5.27-5.27s5.27,2.36,5.27,5.27c0,2.91-2.36,5.27-5.27,5.27-2.91,0-5.27-2.36-5.27-5.27Z"/>
      <path class="cls-1" d="M186.69,106.34c0-2.91,2.36-5.27,5.27-5.27s5.27,2.36,5.27,5.27c0,2.91-2.36,5.27-5.27,5.27-2.91,0-5.27-2.36-5.27-5.27Z"/>
      <path class="cls-1" d="M186.69,116.49c0-2.91,2.36-5.27,5.27-5.27s5.27,2.36,5.27,5.27c0,2.91-2.36,5.27-5.27,5.27-2.91,0-5.27-2.36-5.27-5.27Z"/>
      <path class="cls-1" d="M186.69,124.48c0-1.82,1.48-3.3,3.3-3.3s3.3,1.48,3.3,3.3c0,1.82-1.48,3.3-3.3,3.3-1.82,0-3.3-1.48-3.3-3.3Z"/>
      <path class="cls-1" d="M192.46,124.48c0-1.82,1.48-3.3,3.3-3.3s3.3,1.48,3.3,3.3c0,1.82-1.48,3.3-3.3,3.3-1.82,0-3.3-1.48-3.3-3.3Z"/>
      <path class="cls-1" d="M186.69,130.32c0-1.82,1.48-3.3,3.3-3.3s3.3,1.48,3.3,3.3c0,1.82-1.48,3.3-3.3,3.3-1.82,0-3.3-1.48-3.3-3.3Z"/>
      <path class="cls-1" d="M193.09,129.47c0-1.82,1.48-3.3,3.3-3.3s3.3,1.48,3.3,3.3c0,1.82-1.48,3.3-3.3,3.3-1.82,0-3.3-1.48-3.3-3.3Z"/>
      <path class="cls-1" d="M187.82,135.65c0-1.82,1.48-3.3,3.3-3.3s3.3,1.48,3.3,3.3-1.48,3.3-3.3,3.3c-1.82,0-3.3-1.48-3.3-3.3Z"/>
      <path class="cls-1" d="M192.46,135.65c0-1.82,1.48-3.3,3.3-3.3s3.3,1.48,3.3,3.3c0,1.82-1.48,3.3-3.3,3.3-1.82,0-3.3-1.48-3.3-3.3Z"/>
      <path class="cls-1" d="M189.16,142.02c0-1.82,1.48-3.3,3.3-3.3s3.3,1.48,3.3,3.3-1.48,3.3-3.3,3.3c-1.82,0-3.3-1.48-3.3-3.3Z"/>
      <path class="cls-1" d="M193.93,142.02c0-1.82,1.48-3.3,3.3-3.3s3.3,1.48,3.3,3.3c0,1.82-1.48,3.3-3.3,3.3-1.82,0-3.3-1.48-3.3-3.3Z"/>
      <path class="cls-1" d="M192.46,146.81c0-1.82,1.48-3.3,3.3-3.3s3.3,1.48,3.3,3.3c0,1.82-1.48,3.3-3.3,3.3-1.82,0-3.3-1.48-3.3-3.3Z"/>
      <path class="cls-1" d="M192.46,152.87c0-1.82,1.48-3.3,3.3-3.3s3.3,1.48,3.3,3.3c0,1.82-1.48,3.3-3.3,3.3-1.82,0-3.3-1.48-3.3-3.3Z"/>
      <path class="cls-1" d="M191.12,159.47c0-1.82,1.48-3.3,3.3-3.3s3.3,1.48,3.3,3.3-1.48,3.3-3.3,3.3c-1.82,0-3.3-1.48-3.3-3.3Z"/>
      <path class="cls-1" d="M191.12,164.23c0-1.46,1.18-2.63,2.63-2.63s2.63,1.18,2.63,2.63c0,1.46-1.18,2.63-2.63,2.63-1.46,0-2.63-1.18-2.63-2.63Z"/>
      <path class="cls-1" d="M190.66,169.13c0-1.46,1.18-2.63,2.63-2.63s2.63,1.18,2.63,2.63c0,1.46-1.18,2.63-2.63,2.63-1.46,0-2.63-1.18-2.63-2.63Z"/>
      <path class="cls-1" d="M189.33,174.3c0-1.46,1.18-2.63,2.63-2.63s2.63,1.18,2.63,2.63c0,1.46-1.18,2.63-2.63,2.63-1.46,0-2.63-1.18-2.63-2.63Z"/>
      <path class="cls-1" d="M188.49,179.57c0-1.46,1.18-2.63,2.63-2.63s2.63,1.18,2.63,2.63c0,1.46-1.18,2.63-2.63,2.63-1.46,0-2.63-1.18-2.63-2.63Z"/>
      <path class="cls-1" d="M187.36,183.57c0-1.46,1.18-2.63,2.63-2.63s2.63,1.18,2.63,2.63-1.18,2.63-2.63,2.63c-1.46,0-2.63-1.18-2.63-2.63Z"/>
      <path class="cls-1" d="M8.1,144.51c0-1.82,1.48-3.3,3.3-3.3s3.3,1.48,3.3,3.3-1.48,3.3-3.3,3.3c-1.82,0-3.3-1.48-3.3-3.3Z"/>
      <path class="cls-1" d="M18.05,118.83c0-1.82,1.48-3.3,3.3-3.3s3.3,1.48,3.3,3.3-1.48,3.3-3.3,3.3c-1.82,0-3.3-1.48-3.3-3.3Z"/>
      <path class="cls-1" d="M18.81,112.88c0-1.82,1.48-3.3,3.3-3.3s3.3,1.48,3.3,3.3c0,1.82-1.48,3.3-3.3,3.3-1.82,0-3.3-1.48-3.3-3.3Z"/>
      <path class="cls-1" d="M8.68,111.82c0-1.82,1.48-3.3,3.3-3.3s3.3,1.48,3.3,3.3c0,1.82-1.48,3.3-3.3,3.3-1.82,0-3.3-1.48-3.3-3.3Z"/>
      <path class="cls-1" d="M8.1,103.53c0-1.82,1.48-3.3,3.3-3.3s3.3,1.48,3.3,3.3c0,1.82-1.48,3.3-3.3,3.3-1.82,0-3.3-1.48-3.3-3.3Z"/>
      <path class="cls-1" d="M19.03,101.31c0-1.82,1.48-3.3,3.3-3.3s3.3,1.48,3.3,3.3c0,1.82-1.48,3.3-3.3,3.3-1.82,0-3.3-1.48-3.3-3.3Z"/>
      <path class="cls-1" d="M19.03,108.3c0-1.82,1.48-3.3,3.3-3.3s3.3,1.48,3.3,3.3c0,1.82-1.48,3.3-3.3,3.3-1.82,0-3.3-1.48-3.3-3.3Z"/>
      <path class="cls-1" d="M10.33,91.33c0-1.82,1.48-3.3,3.3-3.3s3.3,1.48,3.3,3.3c0,1.82-1.48,3.3-3.3,3.3-1.82,0-3.3-1.48-3.3-3.3Z"/>
      <path class="cls-1" d="M22.11,69.52c0-1.82,1.48-3.3,3.3-3.3s3.3,1.48,3.3,3.3c0,1.82-1.48,3.3-3.3,3.3-1.82,0-3.3-1.48-3.3-3.3Z"/>
      <path class="cls-1" d="M20.82,95.95c0-1.82,1.48-3.3,3.3-3.3s3.3,1.48,3.3,3.3c0,1.82-1.48,3.3-3.3,3.3-1.82,0-3.3-1.48-3.3-3.3Z"/>
      <path class="cls-1" d="M22.11,74.79c0-1.82,1.48-3.3,3.3-3.3s3.3,1.48,3.3,3.3c0,1.82-1.48,3.3-3.3,3.3-1.82,0-3.3-1.48-3.3-3.3Z"/>
      <path class="cls-1" d="M21.35,87.34c0-1.82,1.48-3.3,3.3-3.3s3.3,1.48,3.3,3.3c0,1.82-1.48,3.3-3.3,3.3-1.82,0-3.3-1.48-3.3-3.3Z"/>
      <path class="cls-1" d="M9.75,82.76c0-1.82,1.48-3.3,3.3-3.3s3.3,1.48,3.3,3.3c0,1.82-1.48,3.3-3.3,3.3-1.82,0-3.3-1.48-3.3-3.3Z"/>
      <path class="cls-1" d="M16.67,58.98c0-1.82,1.48-3.3,3.3-3.3s3.3,1.48,3.3,3.3-1.48,3.3-3.3,3.3c-1.82,0-3.3-1.48-3.3-3.3Z"/>
      <path class="cls-1" d="M22.61,48.2c0-1.82,1.48-3.3,3.3-3.3s3.3,1.48,3.3,3.3c0,1.82-1.48,3.3-3.3,3.3-1.82,0-3.3-1.48-3.3-3.3Z"/>
      <path class="cls-1" d="M31.77,62.28c0-1.82,1.48-3.3,3.3-3.3s3.3,1.48,3.3,3.3-1.48,3.3-3.3,3.3c-1.82,0-3.3-1.48-3.3-3.3Z"/>
      <path class="cls-1" d="M27.88,41.84c0-1.82,1.48-3.3,3.3-3.3s3.3,1.48,3.3,3.3-1.48,3.3-3.3,3.3c-1.82,0-3.3-1.48-3.3-3.3Z"/>
      <path class="cls-1" d="M34.4,38.21c0-1.82,1.48-3.3,3.3-3.3s3.3,1.48,3.3,3.3c0,1.82-1.48,3.3-3.3,3.3-1.82,0-3.3-1.48-3.3-3.3Z"/>
      <path class="cls-1" d="M41.01,36.4c0-1.82,1.48-3.3,3.3-3.3s3.3,1.48,3.3,3.3-1.48,3.3-3.3,3.3c-1.82,0-3.3-1.48-3.3-3.3Z"/>
      <path class="cls-1" d="M37.01,32.39c0-1.82,1.48-3.3,3.3-3.3s3.3,1.48,3.3,3.3-1.48,3.3-3.3,3.3c-1.82,0-3.3-1.48-3.3-3.3Z"/>
      <path class="cls-1" d="M43.05,29.75c0-1.82,1.48-3.3,3.3-3.3s3.3,1.48,3.3,3.3c0,1.82-1.48,3.3-3.3,3.3-1.82,0-3.3-1.48-3.3-3.3Z"/>
      <path class="cls-1" d="M47.61,27.71c0-2.43,1.97-4.41,4.41-4.41s4.41,1.97,4.41,4.41c0,2.43-1.97,4.41-4.41,4.41-2.43,0-4.41-1.97-4.41-4.41Z"/>
      <path class="cls-1" d="M53.29,22.95c0-2.43,1.97-4.41,4.41-4.41s4.41,1.97,4.41,4.41c0,2.43-1.97,4.41-4.41,4.41-2.43,0-4.41-1.97-4.41-4.41Z"/>
      <path class="cls-1" d="M60.11,19.07c0-2.43,1.97-4.41,4.41-4.41s4.41,1.97,4.41,4.41c0,2.43-1.97,4.41-4.41,4.41-2.43,0-4.41-1.97-4.41-4.41Z"/>
      <path class="cls-1" d="M68.89,33.57c0-2.43,1.97-4.41,4.41-4.41s4.41,1.97,4.41,4.41c0,2.43-1.97,4.41-4.41,4.41-2.43,0-4.41-1.97-4.41-4.41Z"/>
      <path class="cls-1" d="M95.58,32.39c0-2.43,1.97-4.41,4.41-4.41s4.41,1.97,4.41,4.41c0,2.43-1.97,4.41-4.41,4.41-2.43,0-4.41-1.97-4.41-4.41Z"/>
      <path class="cls-1" d="M68.89,14.14c0-2.43,1.97-4.41,4.41-4.41s4.41,1.97,4.41,4.41c0,2.43-1.97,4.41-4.41,4.41-2.43,0-4.41-1.97-4.41-4.41Z"/>
      <path class="cls-1" d="M85.73,11.36c0-2.43,1.97-4.41,4.41-4.41s4.41,1.97,4.41,4.41-1.97,4.41-4.41,4.41c-2.43,0-4.41-1.97-4.41-4.41Z"/>
      <path class="cls-1" d="M91.69,14.14c0-2.43,1.97-4.41,4.41-4.41s4.41,1.97,4.41,4.41c0,2.43-1.97,4.41-4.41,4.41-2.43,0-4.41-1.97-4.41-4.41Z"/>
      <path class="cls-1" d="M94.92,7.79c0-2.43,1.97-4.41,4.41-4.41s4.41,1.97,4.41,4.41c0,2.43-1.97,4.41-4.41,4.41-2.43,0-4.41-1.97-4.41-4.41Z"/>
      <path class="cls-1" d="M101.62,12.2c0-2.43,1.97-4.41,4.41-4.41s4.41,1.97,4.41,4.41c0,2.43-1.97,4.41-4.41,4.41-2.43,0-4.41-1.97-4.41-4.41Z"/>
      <path class="cls-1" d="M104.92,8.81c0-2.43,1.97-4.41,4.41-4.41s4.41,1.97,4.41,4.41c0,2.43-1.97,4.41-4.41,4.41-2.43,0-4.41-1.97-4.41-4.41Z"/>
      <path class="cls-1" d="M112.8,5.99c0-2.43,1.97-4.41,4.41-4.41s4.41,1.97,4.41,4.41c0,2.43-1.97,4.41-4.41,4.41-2.43,0-4.41-1.97-4.41-4.41Z"/>
      <path class="cls-1" d="M117.21,12.2c0-2.43,1.97-4.41,4.41-4.41s4.41,1.97,4.41,4.41c0,2.43-1.97,4.41-4.41,4.41-2.43,0-4.41-1.97-4.41-4.41Z"/>
      <path class="cls-1" d="M122.22,5.99c0-2.43,1.97-4.41,4.41-4.41s4.41,1.97,4.41,4.41c0,2.43-1.97,4.41-4.41,4.41-2.43,0-4.41-1.97-4.41-4.41Z"/>
      <path class="cls-1" d="M123.82,14.67c0-2.43,1.97-4.41,4.41-4.41s4.41,1.97,4.41,4.41c0,2.43-1.97,4.41-4.41,4.41-2.43,0-4.41-1.97-4.41-4.41Z"/>
      <path class="cls-1" d="M129.47,10.39c0-2.43,1.97-4.41,4.41-4.41s4.41,1.97,4.41,4.41c0,2.43-1.97,4.41-4.41,4.41-2.43,0-4.41-1.97-4.41-4.41Z"/>
      <path class="cls-1" d="M135.6,16.6c0-2.43,1.97-4.41,4.41-4.41s4.41,1.97,4.41,4.41c0,2.43-1.97,4.41-4.41,4.41-2.43,0-4.41-1.97-4.41-4.41Z"/>
      <path class="cls-1" d="M147.37,22.84c0-2.43,1.97-4.41,4.41-4.41s4.41,1.97,4.41,4.41c0,2.43-1.97,4.41-4.41,4.41-2.43,0-4.41-1.97-4.41-4.41Z"/>
      <path class="cls-1" d="M151.78,27.24c0-2.43,1.97-4.41,4.41-4.41s4.41,1.97,4.41,4.41c0,2.43-1.97,4.41-4.41,4.41-2.43,0-4.41-1.97-4.41-4.41Z"/>
      <path class="cls-1" d="M162.79,34.96c0-2.43,1.97-4.41,4.41-4.41s4.41,1.97,4.41,4.41c0,2.43-1.97,4.41-4.41,4.41-2.43,0-4.41-1.97-4.41-4.41Z"/>
      <path class="cls-1" d="M168.06,42.47c0-2.43,1.97-4.41,4.41-4.41s4.41,1.97,4.41,4.41-1.97,4.41-4.41,4.41c-2.43,0-4.41-1.97-4.41-4.41Z"/>
      <path class="cls-1" d="M120.52,18.43c0-2.43,1.97-4.41,4.41-4.41s4.41,1.97,4.41,4.41c0,2.43-1.97,4.41-4.41,4.41-2.43,0-4.41-1.97-4.41-4.41Z"/>
      <path class="cls-1" d="M140.38,17.63c0-2.43,1.97-4.41,4.41-4.41s4.41,1.97,4.41,4.41c0,2.43-1.97,4.41-4.41,4.41-2.43,0-4.41-1.97-4.41-4.41Z"/>
      <path class="cls-1" d="M157.52,29.75c0-2.43,1.97-4.41,4.41-4.41s4.41,1.97,4.41,4.41c0,2.43-1.97,4.41-4.41,4.41-2.43,0-4.41-1.97-4.41-4.41Z"/>
      <path class="cls-1" d="M22.61,80.79c0-1.82,1.48-3.3,3.3-3.3s3.3,1.48,3.3,3.3c0,1.82-1.48,3.3-3.3,3.3-1.82,0-3.3-1.48-3.3-3.3Z"/>
      <path class="cls-1" d="M109.33,4.41c0-2.43,1.97-4.41,4.41-4.41s4.41,1.97,4.41,4.41c0,2.43-1.97,4.41-4.41,4.41-2.43,0-4.41-1.97-4.41-4.41Z"/>
      <path class="cls-1" d="M117.21,5.99c0-2.43,1.97-4.41,4.41-4.41s4.41,1.97,4.41,4.41c0,2.43-1.97,4.41-4.41,4.41-2.43,0-4.41-1.97-4.41-4.41Z"/>
      <path class="cls-1" d="M104.92,39.36c0-2.43,1.97-4.41,4.41-4.41s4.41,1.97,4.41,4.41c0,2.43-1.97,4.41-4.41,4.41-2.43,0-4.41-1.97-4.41-4.41Z"/>
      <path class="cls-1" d="M112.8,36.99c0-2.43,1.97-4.41,4.41-4.41s4.41,1.97,4.41,4.41c0,2.43-1.97,4.41-4.41,4.41-2.43,0-4.41-1.97-4.41-4.41Z"/>
      <path class="cls-1" d="M108.39,46.45c0-2.43,1.97-4.41,4.41-4.41s4.41,1.97,4.41,4.41c0,2.43-1.97,4.41-4.41,4.41-2.43,0-4.41-1.97-4.41-4.41Z"/>
      <path class="cls-1" d="M112.74,51.12c0-2.43,1.97-4.41,4.41-4.41s4.41,1.97,4.41,4.41c0,2.43-1.97,4.41-4.41,4.41-2.43,0-4.41-1.97-4.41-4.41Z"/>
      <path class="cls-1" d="M119.38,55.25c0-2.43,1.97-4.41,4.41-4.41s4.41,1.97,4.41,4.41-1.97,4.41-4.41,4.41c-2.43,0-4.41-1.97-4.41-4.41Z"/>
      <path class="cls-1" d="M126.23,58.86c0-2.43,1.97-4.41,4.41-4.41s4.41,1.97,4.41,4.41-1.97,4.41-4.41,4.41c-2.43,0-4.41-1.97-4.41-4.41Z"/>
      <path class="cls-1" d="M133.87,60.95c0-2.43,1.97-4.41,4.41-4.41s4.41,1.97,4.41,4.41c0,2.43-1.97,4.41-4.41,4.41-2.43,0-4.41-1.97-4.41-4.41Z"/>
      <path class="cls-1" d="M140.89,59.06c0-2.43,1.97-4.41,4.41-4.41s4.41,1.97,4.41,4.41c0,2.43-1.97,4.41-4.41,4.41-2.43,0-4.41-1.97-4.41-4.41Z"/>
      <path class="cls-1" d="M147.37,52.68c0-2.43,1.97-4.41,4.41-4.41s4.41,1.97,4.41,4.41c0,2.43-1.97,4.41-4.41,4.41-2.43,0-4.41-1.97-4.41-4.41Z"/>
      <path class="cls-1" d="M114.97,42.93c0-2.43,1.97-4.41,4.41-4.41s4.41,1.97,4.41,4.41c0,2.43-1.97,4.41-4.41,4.41-2.43,0-4.41-1.97-4.41-4.41Z"/>
      <path class="cls-1" d="M121.61,38.6c0-2.43,1.97-4.41,4.41-4.41s4.41,1.97,4.41,4.41c0,2.43-1.97,4.41-4.41,4.41-2.43,0-4.41-1.97-4.41-4.41Z"/>
      <path class="cls-1" d="M121.82,44.01c0-2.43,1.97-4.41,4.41-4.41s4.41,1.97,4.41,4.41c0,2.43-1.97,4.41-4.41,4.41-2.43,0-4.41-1.97-4.41-4.41Z"/>
      <path class="cls-1" d="M120.52,48.94c0-2.43,1.97-4.41,4.41-4.41s4.41,1.97,4.41,4.41c0,2.43-1.97,4.41-4.41,4.41-2.43,0-4.41-1.97-4.41-4.41Z"/>
      <path class="cls-1" d="M128.82,45.23c0-2.43,1.97-4.41,4.41-4.41s4.41,1.97,4.41,4.41c0,2.43-1.97,4.41-4.41,4.41-2.43,0-4.41-1.97-4.41-4.41Z"/>
      <path class="cls-1" d="M127.83,50.85c0-2.43,1.97-4.41,4.41-4.41s4.41,1.97,4.41,4.41c0,2.43-1.97,4.41-4.41,4.41-2.43,0-4.41-1.97-4.41-4.41Z"/>
      <path class="cls-1" d="M134.6,49.64c0-2.43,1.97-4.41,4.41-4.41s4.41,1.97,4.41,4.41c0,2.43-1.97,4.41-4.41,4.41-2.43,0-4.41-1.97-4.41-4.41Z"/>
      <path class="cls-1" d="M138.28,53.6c0-2.43,1.97-4.41,4.41-4.41s4.41,1.97,4.41,4.41-1.97,4.41-4.41,4.41c-2.43,0-4.41-1.97-4.41-4.41Z"/>
      <path class="cls-1" d="M130.3,54.21c0-2.43,1.97-4.41,4.41-4.41s4.41,1.97,4.41,4.41c0,2.43-1.97,4.41-4.41,4.41-2.43,0-4.41-1.97-4.41-4.41Z"/>
      <path class="cls-1" d="M89.4,35.69c0-2.43,1.97-4.41,4.41-4.41s4.41,1.97,4.41,4.41c0,2.43-1.97,4.41-4.41,4.41-2.43,0-4.41-1.97-4.41-4.41Z"/>
      <path class="cls-1" d="M82.23,36.99c0-2.43,1.97-4.41,4.41-4.41s4.41,1.97,4.41,4.41c0,2.43-1.97,4.41-4.41,4.41-2.43,0-4.41-1.97-4.41-4.41Z"/>
      <path class="cls-1" d="M76.14,38.07c0-2.43,1.97-4.41,4.41-4.41s4.41,1.97,4.41,4.41c0,2.43-1.97,4.41-4.41,4.41-2.43,0-4.41-1.97-4.41-4.41Z"/>
      <path class="cls-1" d="M68.89,43.01c0-2.43,1.97-4.41,4.41-4.41s4.41,1.97,4.41,4.41c0,2.43-1.97,4.41-4.41,4.41-2.43,0-4.41-1.97-4.41-4.41Z"/>
      <path class="cls-1" d="M59.45,49.19c0-2.43,1.97-4.41,4.41-4.41s4.41,1.97,4.41,4.41c0,2.43-1.97,4.41-4.41,4.41-2.43,0-4.41-1.97-4.41-4.41Z"/>
      <path class="cls-1" d="M50.83,51.55c0-2.43,1.97-4.41,4.41-4.41s4.41,1.97,4.41,4.41c0,2.43-1.97,4.41-4.41,4.41-2.43,0-4.41-1.97-4.41-4.41Z"/>
      <path class="cls-1" d="M45.06,54.72c0-2.43,1.97-4.41,4.41-4.41s4.41,1.97,4.41,4.41c0,2.43-1.97,4.41-4.41,4.41-2.43,0-4.41-1.97-4.41-4.41Z"/>
      <path class="cls-1" d="M36.6,59.13c0-2.43,1.97-4.41,4.41-4.41s4.41,1.97,4.41,4.41-1.97,4.41-4.41,4.41c-2.43,0-4.41-1.97-4.41-4.41Z"/>
      <path class="cls-1" d="M25.63,66.68c0-2.43,1.97-4.41,4.41-4.41s4.41,1.97,4.41,4.41c0,2.43-1.97,4.41-4.41,4.41-2.43,0-4.41-1.97-4.41-4.41Z"/>
      <path class="cls-1" d="M156.19,52.86c0-2.43,1.97-4.41,4.41-4.41s4.41,1.97,4.41,4.41c0,2.43-1.97,4.41-4.41,4.41-2.43,0-4.41-1.97-4.41-4.41Z"/>
      <path class="cls-1" d="M161.93,58c0-2.43,1.97-4.41,4.41-4.41s4.41,1.97,4.41,4.41c0,2.43-1.97,4.41-4.41,4.41-2.43,0-4.41-1.97-4.41-4.41Z"/>
      <path class="cls-1" d="M77.13,10.85c0-2.43,1.97-4.41,4.41-4.41s4.41,1.97,4.41,4.41c0,2.43-1.97,4.41-4.41,4.41-2.43,0-4.41-1.97-4.41-4.41Z"/>
      <path class="cls-1" d="M99.32,5.26c0-2.43,1.97-4.41,4.41-4.41s4.41,1.97,4.41,4.41c0,2.43-1.97,4.41-4.41,4.41-2.43,0-4.41-1.97-4.41-4.41Z"/>
      <path class="cls-1" d="M86.64,6.96c0-2.43,1.97-4.41,4.41-4.41s4.41,1.97,4.41,4.41c0,2.43-1.97,4.41-4.41,4.41-2.43,0-4.41-1.97-4.41-4.41Z"/>
      <path class="cls-1" d="M32.05,37.66c0-2.43,1.97-4.41,4.41-4.41s4.41,1.97,4.41,4.41-1.97,4.41-4.41,4.41c-2.43,0-4.41-1.97-4.41-4.41Z"/>
      <path class="cls-1" d="M48.72,33.1c0-2.43,1.97-4.41,4.41-4.41s4.41,1.97,4.41,4.41c0,2.43-1.97,4.41-4.41,4.41-2.43,0-4.41-1.97-4.41-4.41Z"/>
      <path class="cls-1" d="M62.95,13.22c0-1.91,1.55-3.46,3.46-3.46s3.46,1.55,3.46,3.46c0,1.91-1.55,3.46-3.46,3.46-1.91,0-3.46-1.55-3.46-3.46Z"/>
      <path class="cls-1" d="M55.35,15.25c0-1.91,1.55-3.46,3.46-3.46s3.46,1.55,3.46,3.46-1.55,3.46-3.46,3.46c-1.91,0-3.46-1.55-3.46-3.46Z"/>
      <path class="cls-1" d="M52.66,18.54c0-1.91,1.55-3.46,3.46-3.46s3.46,1.55,3.46,3.46c0,1.91-1.55,3.46-3.46,3.46-1.91,0-3.46-1.55-3.46-3.46Z"/>
      <path class="cls-1" d="M39.53,27.35c0-1.91,1.55-3.46,3.46-3.46s3.46,1.55,3.46,3.46c0,1.91-1.55,3.46-3.46,3.46-1.91,0-3.46-1.55-3.46-3.46Z"/>
      <path class="cls-1" d="M33.14,31.29c0-1.91,1.55-3.46,3.46-3.46s3.46,1.55,3.46,3.46c0,1.91-1.55,3.46-3.46,3.46-1.91,0-3.46-1.55-3.46-3.46Z"/>
      <path class="cls-1" d="M32.05,35.69c0-1.91,1.55-3.46,3.46-3.46s3.46,1.55,3.46,3.46c0,1.91-1.55,3.46-3.46,3.46-1.91,0-3.46-1.55-3.46-3.46Z"/>
      <path class="cls-1" d="M17.66,73.47c0-1.91,1.55-3.46,3.46-3.46s3.46,1.55,3.46,3.46c0,1.91-1.55,3.46-3.46,3.46-1.91,0-3.46-1.55-3.46-3.46Z"/>
      <path class="cls-1" d="M156.74,23.97c0-1.91,1.55-3.46,3.46-3.46s3.46,1.55,3.46,3.46-1.55,3.46-3.46,3.46c-1.91,0-3.46-1.55-3.46-3.46Z"/>
      <path class="cls-1" d="M164.6,29.16c0-1.91,1.55-3.46,3.46-3.46s3.46,1.55,3.46,3.46c0,1.91-1.55,3.46-3.46,3.46-1.91,0-3.46-1.55-3.46-3.46Z"/>
      <path class="cls-1" d="M169,35.69c0-1.91,1.55-3.46,3.46-3.46s3.46,1.55,3.46,3.46-1.55,3.46-3.46,3.46c-1.91,0-3.46-1.55-3.46-3.46Z"/>
      <path class="cls-1" d="M168.14,34.15c0-1.91,1.55-3.46,3.46-3.46s3.46,1.55,3.46,3.46-1.55,3.46-3.46,3.46c-1.91,0-3.46-1.55-3.46-3.46Z"/>
      <path class="cls-1" d="M139.22,10.85c0-1.91,1.55-3.46,3.46-3.46s3.46,1.55,3.46,3.46c0,1.91-1.55,3.46-3.46,3.46-1.91,0-3.46-1.55-3.46-3.46Z"/>
      <path class="cls-1" d="M150.68,17.63c0-1.91,1.55-3.46,3.46-3.46s3.46,1.55,3.46,3.46c0,1.91-1.55,3.46-3.46,3.46-1.91,0-3.46-1.55-3.46-3.46Z"/>
      <path class="cls-1" d="M145.73,14.31c0-1.91,1.55-3.46,3.46-3.46s3.46,1.55,3.46,3.46c0,1.91-1.55,3.46-3.46,3.46-1.91,0-3.46-1.55-3.46-3.46Z"/>
      <path class="cls-1" d="M172.67,66.2c0-1.91,1.55-3.46,3.46-3.46s3.46,1.55,3.46,3.46-1.55,3.46-3.46,3.46c-1.91,0-3.46-1.55-3.46-3.46Z"/>
      <path class="cls-1" d="M189.83,79.06c0-1.91,1.55-3.46,3.46-3.46s3.46,1.55,3.46,3.46-1.55,3.46-3.46,3.46c-1.91,0-3.46-1.55-3.46-3.46Z"/>
      <path class="cls-1" d="M188.5,72.62c0-1.91,1.55-3.46,3.46-3.46s3.46,1.55,3.46,3.46c0,1.91-1.55,3.46-3.46,3.46-1.91,0-3.46-1.55-3.46-3.46Z"/>
      <path class="cls-1" d="M182.54,64.68c0-1.91,1.55-3.46,3.46-3.46s3.46,1.55,3.46,3.46c0,1.91-1.55,3.46-3.46,3.46-1.91,0-3.46-1.55-3.46-3.46Z"/>
      <path class="cls-1" d="M187.66,67.6c0-1.91,1.55-3.46,3.46-3.46s3.46,1.55,3.46,3.46-1.55,3.46-3.46,3.46c-1.91,0-3.46-1.55-3.46-3.46Z"/>
      <path class="cls-1" d="M174.82,45.98c0-1.91,1.55-3.46,3.46-3.46s3.46,1.55,3.46,3.46-1.55,3.46-3.46,3.46c-1.91,0-3.46-1.55-3.46-3.46Z"/>
      <path class="cls-1" d="M179.08,52.68c0-1.91,1.55-3.46,3.46-3.46s3.46,1.55,3.46,3.46c0,1.91-1.55,3.46-3.46,3.46-1.91,0-3.46-1.55-3.46-3.46Z"/>
      <path class="cls-1" d="M183.23,59.83c0-1.82,1.48-3.29,3.3-3.29s3.3,1.47,3.3,3.29-1.48,3.29-3.3,3.29c-1.82,0-3.3-1.47-3.3-3.29Z"/>
      <path class="cls-1" d="M193.46,101.89c0-1.82,1.48-3.3,3.3-3.3s3.3,1.48,3.3,3.3c0,1.82-1.48,3.3-3.3,3.3-1.82,0-3.3-1.48-3.3-3.3Z"/>
      <path class="cls-1" d="M192.46,111.61c0-1.82,1.48-3.3,3.3-3.3s3.3,1.48,3.3,3.3c0,1.82-1.48,3.3-3.3,3.3-1.82,0-3.3-1.48-3.3-3.3Z"/>
      <circle class="cls-1" cx="42.16" cy="255.81" r="2.32"/>
      <circle class="cls-1" cx="42.76" cy="260.83" r="1.72"/>
      <circle class="cls-1" cx="42.91" cy="265.11" r="1.72"/>
      <circle class="cls-1" cx="42.91" cy="269.4" r="1.72"/>
      <path class="cls-1" d="M41.04,273.84c0-.95,.77-1.72,1.72-1.72s1.72,.77,1.72,1.72-.77,1.72-1.72,1.72c-.95,0-1.72-.77-1.72-1.72Z"/>
      <path class="cls-1" d="M40.06,278.28c0-.95,.77-1.72,1.72-1.72s1.72,.77,1.72,1.72-.77,1.72-1.72,1.72c-.95,0-1.72-.77-1.72-1.72Z"/>
      <circle class="cls-1" cx="39.3" cy="282.71" r="1.72"/>
      <path class="cls-1" d="M162.05,271.43c0-.95,.77-1.72,1.72-1.72s1.72,.77,1.72,1.72-.77,1.72-1.72,1.72c-.95,0-1.72-.77-1.72-1.72Z"/>
      <path class="cls-1" d="M162.05,276.31c0-.95,.77-1.72,1.72-1.72s1.72,.77,1.72,1.72-.77,1.72-1.72,1.72c-.95,0-1.72-.77-1.72-1.72Z"/>
      <path class="cls-1" d="M161.87,281.01c0-.95,.77-1.72,1.72-1.72s1.72,.77,1.72,1.72-.77,1.72-1.72,1.72c-.95,0-1.72-.77-1.72-1.72Z"/>
      <circle class="cls-1" cx="163.19" cy="285.26" r="1.72"/>
      <path class="cls-1" d="M161.46,289.51c0-.95,.77-1.72,1.72-1.72s1.72,.77,1.72,1.72-.77,1.72-1.72,1.72c-.95,0-1.72-.77-1.72-1.72Z"/>
      <circle class="cls-1" cx="162.58" cy="294.01" r="1.72"/>
      <path class="cls-1" d="M160.85,298.51c0-.95,.77-1.72,1.72-1.72s1.72,.77,1.72,1.72-.77,1.72-1.72,1.72c-.95,0-1.72-.77-1.72-1.72Z"/>
      <path class="cls-1" d="M36.21,287.15c0-.95,.77-1.72,1.72-1.72s1.72,.77,1.72,1.72-.77,1.72-1.72,1.72c-.95,0-1.72-.77-1.72-1.72Z"/>
      <circle class="cls-1" cx="37.93" cy="291.59" r="1.72"/>
      <path class="cls-1" d="M70.51,208.76c0-.72,.58-1.3,1.3-1.3s1.3,.58,1.3,1.3-.58,1.3-1.3,1.3-1.3-.58-1.3-1.3Z"/>
      <path class="cls-1" d="M67.57,210.85c0-.72,.58-1.3,1.3-1.3s1.3,.58,1.3,1.3-.58,1.3-1.3,1.3-1.3-.58-1.3-1.3Z"/>
      <path class="cls-1" d="M65.32,213.44c0-.72,.58-1.3,1.3-1.3s1.3,.58,1.3,1.3-.58,1.3-1.3,1.3-1.3-.58-1.3-1.3Z"/>
      <path class="cls-1" d="M62.71,216.05c0-.72,.58-1.3,1.3-1.3s1.3,.58,1.3,1.3c0,.72-.58,1.3-1.3,1.3s-1.3-.58-1.3-1.3Z"/>
      <path class="cls-1" d="M61.02,218.96c0-.72,.58-1.3,1.3-1.3s1.3,.58,1.3,1.3-.58,1.3-1.3,1.3-1.3-.58-1.3-1.3Z"/>
      <path class="cls-1" d="M59.72,222.37c0-.72,.58-1.3,1.3-1.3s1.3,.58,1.3,1.3-.58,1.3-1.3,1.3-1.3-.58-1.3-1.3Z"/>
      <circle class="cls-1" cx="61.23" cy="226.56" r="1.3"/>
      <circle class="cls-1" cx="62.06" cy="229.65" r="1.3"/>
      <path class="cls-1" d="M62.71,233.04c0-.72,.58-1.3,1.3-1.3s1.3,.58,1.3,1.3c0,.72-.58,1.3-1.3,1.3s-1.3-.58-1.3-1.3Z"/>
      <circle class="cls-1" cx="164.42" cy="266.87" r="2.2"/>
    </g>
  </g>
</svg>