<?xml version="1.0" encoding="UTF-8"?>
<svg id="Layer_2" data-name="Layer 2" xmlns="http://www.w3.org/2000/svg" viewBox="0 0 272.03 415.14">
  <defs>
    <style>
      .cls-1 {
        fill: #231f20;
      }
    </style>
  </defs>
  <g id="Layer_2-2" data-name="Layer 2">
    <g>
      <circle class="cls-1" cx="191.98" cy="124.05" r="2.49"/>
      <circle class="cls-1" cx="196.61" cy="121.13" r="2.49"/>
      <circle class="cls-1" cx="201.58" cy="119.25" r="2.49"/>
      <circle class="cls-1" cx="207.42" cy="119.88" r="2.49"/>
      <circle class="cls-1" cx="189.29" cy="129.03" r="2.49"/>
      <circle class="cls-1" cx="187.43" cy="133.68" r="1.86"/>
      <circle class="cls-1" cx="193.02" cy="134.77" r="2.49"/>
      <circle class="cls-1" cx="198.5" cy="134.31" r="2.49"/>
      <circle class="cls-1" cx="204.07" cy="133.38" r="2.49"/>
      <circle class="cls-1" cx="209.69" cy="131.82" r="2.49"/>
      <circle class="cls-1" cx="214.66" cy="129.33" r="2.49"/>
      <circle class="cls-1" cx="213.04" cy="120.71" r="2.49"/>
      <circle class="cls-1" cx="218.61" cy="124.54" r="2.49"/>
      <circle class="cls-1" cx="199.2" cy="127.48" r="5.73"/>
      <circle class="cls-1" cx="136.69" cy="144.36" r="2.49"/>
      <circle class="cls-1" cx="131.33" cy="143.53" r="2.49"/>
      <circle class="cls-1" cx="125.86" cy="143.75" r="2.49"/>
      <circle class="cls-1" cx="120.44" cy="144.52" r="2.49"/>
      <circle class="cls-1" cx="141.66" cy="145.52" r="2.49"/>
      <circle class="cls-1" cx="145.58" cy="148.86" r="1.86"/>
      <circle class="cls-1" cx="141.24" cy="152.57" r="2.49"/>
      <circle class="cls-1" cx="135.14" cy="154.82" r="2.49"/>
      <circle class="cls-1" cx="129.7" cy="156.34" r="2.49"/>
      <circle class="cls-1" cx="123.95" cy="157.31" r="2.49"/>
      <circle class="cls-1" cx="118.39" cy="157.16" r="2.49"/>
      <circle class="cls-1" cx="116.11" cy="148.45" r="2.49"/>
      <circle class="cls-1" cx="112.78" cy="154.5" r="2.49"/>
      <circle class="cls-1" cx="124.92" cy="150.09" r="5.73"/>
      <circle class="cls-1" cx="180.39" cy="133.11" r="1.7"/>
      <circle class="cls-1" cx="179.86" cy="137.05" r="1.7"/>
      <circle class="cls-1" cx="180.85" cy="140.73" r="1.7"/>
      <circle class="cls-1" cx="182.89" cy="144.11" r="1.7"/>
      <circle class="cls-1" cx="184.27" cy="147.46" r="1.29"/>
      <circle class="cls-1" cx="183.7" cy="122.43" r="2.82"/>
      <circle class="cls-1" cx="185.95" cy="117.39" r="2.82"/>
      <circle class="cls-1" cx="190.53" cy="115.74" r="2.82"/>
      <circle class="cls-1" cx="196.02" cy="113.38" r="2.82"/>
      <circle class="cls-1" cx="199.78" cy="109.62" r="2.41"/>
      <circle class="cls-1" cx="202.63" cy="105.41" r="2.24"/>
      <circle class="cls-1" cx="204.82" cy="101.3" r="2.24"/>
      <circle class="cls-1" cx="209.66" cy="100.89" r="1.91"/>
      <circle class="cls-1" cx="213.52" cy="100.89" r="1.56"/>
      <circle class="cls-1" cx="147.44" cy="130.71" r="2.82"/>
      <circle class="cls-1" cx="142" cy="131.82" r="2.82"/>
      <circle class="cls-1" cx="118.59" cy="133.11" r="2.45"/>
      <circle class="cls-1" cx="124.34" cy="132.73" r="2.45"/>
      <circle class="cls-1" cx="130.07" cy="132.28" r="2.46"/>
      <circle class="cls-1" cx="136.18" cy="131.82" r="2.82"/>
      <circle class="cls-1" cx="113.62" cy="133.11" r="2.45"/>
      <circle class="cls-1" cx="164.07" cy="182.36" r="1.9"/>
      <circle class="cls-1" cx="165.24" cy="187.09" r="1.82"/>
      <circle class="cls-1" cx="168.62" cy="190.51" r="1.82"/>
      <circle class="cls-1" cx="172.06" cy="187.09" r="1.47"/>
      <circle class="cls-1" cx="174.78" cy="185.26" r="1.47"/>
      <circle class="cls-1" cx="178.73" cy="184.94" r="1.47"/>
      <circle class="cls-1" cx="181.8" cy="186.98" r="1.47"/>
      <circle class="cls-1" cx="186.11" cy="187.53" r="2.26"/>
      <circle class="cls-1" cx="191.48" cy="186.42" r="2.26"/>
      <circle class="cls-1" cx="194.67" cy="183.25" r="1.47"/>
      <circle class="cls-1" cx="195.9" cy="179.64" r="1.47"/>
      <circle class="cls-1" cx="199.22" cy="180.14" r="1.47"/>
      <circle class="cls-1" cx="200.64" cy="176.29" r="1.82"/>
      <circle class="cls-1" cx="198.61" cy="172.09" r="1.82"/>
      <circle class="cls-1" cx="195.9" cy="168.5" r="2.26"/>
      <circle class="cls-1" cx="170.89" cy="220.85" r="2.26"/>
      <circle class="cls-1" cx="176.58" cy="219.53" r="2.88"/>
      <circle class="cls-1" cx="181.8" cy="216.65" r="2.88"/>
      <circle class="cls-1" cx="187.41" cy="213.76" r="2.88"/>
      <circle class="cls-1" cx="193.57" cy="212.56" r="2.88"/>
      <circle class="cls-1" cx="199.87" cy="210.88" r="2.88"/>
      <circle class="cls-1" cx="206.22" cy="208.71" r="2.88"/>
      <circle class="cls-1" cx="212.26" cy="207.13" r="2.26"/>
      <circle class="cls-1" cx="194.5" cy="220.15" r="3.51"/>
      <circle class="cls-1" cx="201.78" cy="218.13" r="3.51"/>
      <circle class="cls-1" cx="208.2" cy="214.62" r="2.88"/>
      <circle class="cls-1" cx="213.46" cy="211.92" r="2.26"/>
      <circle class="cls-1" cx="187.52" cy="221.49" r="2.88"/>
      <circle class="cls-1" cx="181.51" cy="222.41" r="2.26"/>
      <circle class="cls-1" cx="217.39" cy="206.47" r="2.26"/>
      <circle class="cls-1" cx="166.13" cy="220.93" r="1.62"/>
      <circle class="cls-1" cx="221.17" cy="203.57" r="1.62"/>
      <circle class="cls-1" cx="162.45" cy="220.93" r="1.62"/>
      <circle class="cls-1" cx="159.03" cy="220.85" r="1.24"/>
      <circle class="cls-1" cx="229.9" cy="121.13" r="1.7"/>
      <circle class="cls-1" cx="231.6" cy="125.32" r="1.7"/>
      <circle class="cls-1" cx="232.71" cy="129.7" r="1.7"/>
      <circle class="cls-1" cx="233.78" cy="133.97" r="1.7"/>
      <circle class="cls-1" cx="235.1" cy="138.24" r="1.7"/>
      <circle class="cls-1" cx="236.57" cy="142.51" r="1.7"/>
      <circle class="cls-1" cx="237.83" cy="146.78" r="1.7"/>
      <circle class="cls-1" cx="238.95" cy="151.05" r="1.7"/>
      <circle class="cls-1" cx="239.99" cy="155.52" r="1.7"/>
      <circle class="cls-1" cx="240.57" cy="160.04" r="1.7"/>
      <circle class="cls-1" cx="241.09" cy="164.4" r="1.7"/>
      <circle class="cls-1" cx="241.09" cy="168.95" r="1.7"/>
      <circle class="cls-1" cx="241.67" cy="173.51" r="1.7"/>
      <circle class="cls-1" cx="242.23" cy="177.88" r="1.7"/>
      <circle class="cls-1" cx="243.39" cy="182.05" r="1.7"/>
      <circle class="cls-1" cx="244.42" cy="186.93" r="1.7"/>
      <circle class="cls-1" cx="245.01" cy="191.49" r="1.7"/>
      <circle class="cls-1" cx="245.19" cy="196.06" r="1.7"/>
      <circle class="cls-1" cx="244.42" cy="200.62" r="1.7"/>
      <circle class="cls-1" cx="244.05" cy="205.19" r="1.7"/>
      <circle class="cls-1" cx="243.22" cy="209.76" r="1.7"/>
      <circle class="cls-1" cx="242.03" cy="213.79" r="1.7"/>
      <circle class="cls-1" cx="240.81" cy="217.82" r="1.7"/>
      <circle class="cls-1" cx="239.64" cy="222.05" r="1.7"/>
      <circle class="cls-1" cx="239.09" cy="226.49" r="1.7"/>
      <circle class="cls-1" cx="238.25" cy="230.8" r="1.7"/>
      <circle class="cls-1" cx="237.11" cy="235.31" r="1.7"/>
      <circle class="cls-1" cx="235.5" cy="239.51" r="1.7"/>
      <circle class="cls-1" cx="233.03" cy="243.25" r="1.7"/>
      <circle class="cls-1" cx="230.42" cy="247.48" r="1.7"/>
      <circle class="cls-1" cx="228" cy="251.49" r="1.7"/>
      <circle class="cls-1" cx="224.96" cy="255.71" r="1.7"/>
      <circle class="cls-1" cx="222.01" cy="259.5" r="1.7"/>
      <circle class="cls-1" cx="218.67" cy="261.98" r="1.7"/>
      <circle class="cls-1" cx="214.97" cy="263.97" r="1.7"/>
      <circle class="cls-1" cx="211.35" cy="265.7" r="1.7"/>
      <circle class="cls-1" cx="207.38" cy="267.03" r="1.7"/>
      <circle class="cls-1" cx="203.12" cy="268.19" r="1.7"/>
      <circle class="cls-1" cx="198.75" cy="268.75" r="1.7"/>
      <circle class="cls-1" cx="194.5" cy="269.3" r="1.7"/>
      <circle class="cls-1" cx="189.67" cy="269.92" r="1.7"/>
      <circle class="cls-1" cx="185.12" cy="269.92" r="1.7"/>
      <circle class="cls-1" cx="180.59" cy="269.92" r="1.7"/>
      <circle class="cls-1" cx="176.34" cy="269.3" r="1.7"/>
      <circle class="cls-1" cx="172.39" cy="269.26" r="1.7"/>
      <circle class="cls-1" cx="168.05" cy="268.75" r="1.7"/>
      <circle class="cls-1" cx="163.93" cy="267.57" r="1.7"/>
      <circle class="cls-1" cx="159.99" cy="267.03" r="1.7"/>
      <circle class="cls-1" cx="155.78" cy="265.91" r="1.7"/>
      <circle class="cls-1" cx="224.89" cy="190.07" r="1.25"/>
      <circle class="cls-1" cx="227.31" cy="191.49" r="1.25"/>
      <circle class="cls-1" cx="229.72" cy="193.57" r="1.25"/>
      <circle class="cls-1" cx="230.09" cy="196.45" r="1.25"/>
      <circle class="cls-1" cx="230.09" cy="199.44" r="1.25"/>
      <circle class="cls-1" cx="229.72" cy="202.25" r="1.25"/>
      <circle class="cls-1" cx="229.72" cy="205.37" r="1.25"/>
      <circle class="cls-1" cx="222.36" cy="188.97" r="1.25"/>
      <circle class="cls-1" cx="219.92" cy="187.72" r="1.25"/>
      <circle class="cls-1" cx="156.37" cy="200.06" r="1.25"/>
      <circle class="cls-1" cx="155.12" cy="202.56" r="1.25"/>
      <circle class="cls-1" cx="153.87" cy="205.07" r="1.25"/>
      <circle class="cls-1" cx="152.17" cy="207.89" r="1.25"/>
      <circle class="cls-1" cx="150.43" cy="210.39" r="1.25"/>
      <circle class="cls-1" cx="148.3" cy="212.51" r="1.25"/>
      <circle class="cls-1" cx="146.51" cy="215.01" r="1.25"/>
      <circle class="cls-1" cx="147.93" cy="217.9" r="1.25"/>
      <circle class="cls-1" cx="150.92" cy="52.33" r="9.19"/>
      <circle class="cls-1" cx="172.06" cy="52.12" r="9.19"/>
      <circle class="cls-1" cx="190.36" cy="56.38" r="7.77"/>
      <circle class="cls-1" cx="208.29" cy="65.46" r="6.7"/>
      <circle class="cls-1" cx="213.45" cy="76.02" r="5.16"/>
      <circle class="cls-1" cx="217.15" cy="84.72" r="3.39"/>
      <circle class="cls-1" cx="219.52" cy="92.52" r="3.39"/>
      <circle class="cls-1" cx="202.63" cy="54.45" r="6.7"/>
      <circle class="cls-1" cx="193.02" cy="44.56" r="7.77"/>
      <circle class="cls-1" cx="182.58" cy="36.78" r="9.19"/>
      <circle class="cls-1" cx="168.61" cy="25.2" r="9.19"/>
      <circle class="cls-1" cx="162.86" cy="38.55" r="9.19"/>
      <circle class="cls-1" cx="153.67" cy="18.39" r="9.19"/>
      <circle class="cls-1" cx="138.04" cy="10.28" r="9.19"/>
      <circle class="cls-1" cx="147.6" cy="41" r="6.7"/>
      <circle class="cls-1" cx="140.9" cy="26.17" r="6.7"/>
      <circle class="cls-1" cx="155.42" cy="29.36" r="6.7"/>
      <circle class="cls-1" cx="127.82" cy="31.11" r="4.94"/>
      <circle class="cls-1" cx="130.4" cy="41" r="4.94"/>
      <circle class="cls-1" cx="134.21" cy="49.75" r="4.94"/>
      <circle class="cls-1" cx="140.18" cy="58.76" r="4.94"/>
      <circle class="cls-1" cx="138.04" cy="36.78" r="6.7"/>
      <circle class="cls-1" cx="128.84" cy="22.05" r="6.7"/>
      <circle class="cls-1" cx="140.18" cy="47.75" r="4.94"/>
      <circle class="cls-1" cx="119.05" cy="10.28" r="9.19"/>
      <circle class="cls-1" cx="91.95" cy="52.12" r="9.19"/>
      <circle class="cls-1" cx="228.81" cy="116.76" r="1.7"/>
      <circle class="cls-1" cx="227.64" cy="112.97" r="1.7"/>
      <circle class="cls-1" cx="226.63" cy="107.92" r="1.7"/>
      <circle class="cls-1" cx="225.46" cy="104" r="1.7"/>
      <circle class="cls-1" cx="108.58" cy="60.18" r="9.19"/>
      <circle class="cls-1" cx="97.6" cy="32.87" r="9.19"/>
      <circle class="cls-1" cx="69.4" cy="40.31" r="9.19"/>
      <circle class="cls-1" cx="106.09" cy="44.81" r="6.7"/>
      <circle class="cls-1" cx="122.87" cy="66.88" r="6.7"/>
      <circle class="cls-1" cx="110.79" cy="26.17" r="6.7"/>
      <circle class="cls-1" cx="104.09" cy="15.35" r="6.7"/>
      <circle class="cls-1" cx="114.83" cy="36.78" r="4.94"/>
      <circle class="cls-1" cx="117.49" cy="46.53" r="4.94"/>
      <circle class="cls-1" cx="122.14" cy="56.38" r="4.94"/>
      <circle class="cls-1" cx="91.95" cy="20.89" r="6.7"/>
      <circle class="cls-1" cx="82.76" cy="35.36" r="9.19"/>
      <circle class="cls-1" cx="83.6" cy="25.2" r="9.19"/>
      <circle class="cls-1" cx="58.81" cy="54.45" r="9.19"/>
      <circle class="cls-1" cx="77.2" cy="56.27" r="9.19"/>
      <circle class="cls-1" cx="94.15" cy="71.75" r="9.19"/>
      <circle class="cls-1" cx="112.54" cy="78.57" r="9.19"/>
      <circle class="cls-1" cx="78.6" cy="76.84" r="9.19"/>
      <circle class="cls-1" cx="47.92" cy="69.38" r="9.19"/>
      <circle class="cls-1" cx="65.19" cy="73.58" r="9.19"/>
      <circle class="cls-1" cx="106.09" cy="98.12" r="9.19"/>
      <circle class="cls-1" cx="91.95" cy="88.93" r="9.19"/>
      <circle class="cls-1" cx="77.2" cy="95.91" r="9.19"/>
      <circle class="cls-1" cx="58.81" cy="91.51" r="9.19"/>
      <circle class="cls-1" cx="42.39" cy="86.72" r="9.19"/>
      <circle class="cls-1" cx="103.39" cy="114.39" r="9.19"/>
      <circle class="cls-1" cx="86.39" cy="109.62" r="9.19"/>
      <circle class="cls-1" cx="67.84" cy="112.97" r="9.19"/>
      <circle class="cls-1" cx="47.92" cy="107.92" r="9.19"/>
      <circle class="cls-1" cx="34.86" cy="104" r="9.19"/>
      <circle class="cls-1" cx="34.86" cy="122.06" r="9.19"/>
      <circle class="cls-1" cx="56" cy="133.11" r="15.12"/>
      <circle class="cls-1" cx="85.05" cy="134.77" r="15.12"/>
      <circle class="cls-1" cx="47.92" cy="164.93" r="15.12"/>
      <circle class="cls-1" cx="78.6" cy="158.29" r="15.12"/>
      <circle class="cls-1" cx="50.06" cy="194.38" r="15.12"/>
      <circle class="cls-1" cx="72.23" cy="220.15" r="15.12"/>
      <circle class="cls-1" cx="76.36" cy="188.29" r="15.12"/>
      <circle class="cls-1" cx="45.18" cy="222.82" r="15.12"/>
      <circle class="cls-1" cx="61.24" cy="246.8" r="15.12"/>
      <circle class="cls-1" cx="40.21" cy="265.91" r="15.12"/>
      <circle class="cls-1" cx="67.58" cy="280.71" r="15.12"/>
      <circle class="cls-1" cx="88.22" cy="264.77" r="15.12"/>
      <circle class="cls-1" cx="100.17" cy="287.6" r="15.12"/>
      <circle class="cls-1" cx="117.95" cy="313.01" r="15.12"/>
      <circle class="cls-1" cx="80.19" cy="308.8" r="15.12"/>
      <circle class="cls-1" cx="50.06" cy="305.41" r="15.12"/>
      <circle class="cls-1" cx="106.45" cy="131.82" r="9.19"/>
      <circle class="cls-1" cx="104.81" cy="148.86" r="9.19"/>
      <circle class="cls-1" cx="100.17" cy="167.83" r="9.19"/>
      <circle class="cls-1" cx="99.39" cy="188.29" r="9.19"/>
      <circle class="cls-1" cx="97.11" cy="206.29" r="9.19"/>
      <circle class="cls-1" cx="93.72" cy="224.45" r="9.19"/>
      <circle class="cls-1" cx="110.29" cy="232.57" r="9.19"/>
      <circle class="cls-1" cx="109.37" cy="216.07" r="9.19"/>
      <circle class="cls-1" cx="88.73" cy="240.54" r="9.19"/>
      <circle class="cls-1" cx="106.09" cy="249.73" r="9.19"/>
      <circle class="cls-1" cx="121.59" cy="249.65" r="9.19"/>
      <circle class="cls-1" cx="114.01" cy="267.03" r="9.19"/>
      <circle class="cls-1" cx="131.33" cy="264.77" r="9.19"/>
      <circle class="cls-1" cx="148.3" cy="270.99" r="9.19"/>
      <circle class="cls-1" cx="106.45" cy="176.37" r="9.19"/>
      <circle class="cls-1" cx="123.2" cy="281.48" r="9.19"/>
      <circle class="cls-1" cx="143.67" cy="283.28" r="9.19"/>
      <circle class="cls-1" cx="131.33" cy="293.82" r="9.19"/>
      <circle class="cls-1" cx="34.94" cy="141.6" r="9.19"/>
      <circle class="cls-1" cx="32.8" cy="160.04" r="9.19"/>
      <circle class="cls-1" cx="31.87" cy="183.25" r="9.19"/>
      <circle class="cls-1" cx="33.47" cy="203.37" r="9.19"/>
      <circle class="cls-1" cx="38.72" cy="243.71" r="9.19"/>
      <circle class="cls-1" cx="23.6" cy="281.03" r="9.19"/>
      <circle class="cls-1" cx="18.39" cy="302.72" r="9.19"/>
      <circle class="cls-1" cx="14.41" cy="320.53" r="9.19"/>
      <circle class="cls-1" cx="9.2" cy="337.32" r="9.19"/>
      <circle class="cls-1" cx="9.2" cy="355.78" r="9.19"/>
      <circle class="cls-1" cx="9.2" cy="374.17" r="9.19"/>
      <circle class="cls-1" cx="9.19" cy="395.03" r="9.19"/>
      <circle class="cls-1" cx="40.02" cy="288.51" r="9.19"/>
      <circle class="cls-1" cx="26.02" cy="255.71" r="9.19"/>
      <circle class="cls-1" cx="27.58" cy="235.88" r="9.19"/>
      <circle class="cls-1" cx="30.83" cy="221.49" r="9.19"/>
      <circle class="cls-1" cx="30.83" cy="300.78" r="9.19"/>
      <circle class="cls-1" cx="32.8" cy="320.53" r="9.19"/>
      <circle class="cls-1" cx="29.53" cy="337.32" r="9.19"/>
      <circle class="cls-1" cx="29.53" cy="355.78" r="9.19"/>
      <circle class="cls-1" cx="27.58" cy="375.28" r="9.19"/>
      <circle class="cls-1" cx="50.93" cy="330.24" r="9.19"/>
      <circle class="cls-1" cx="51.32" cy="349.14" r="9.19"/>
      <circle class="cls-1" cx="68.35" cy="327.64" r="9.19"/>
      <circle class="cls-1" cx="70.43" cy="344" r="9.19"/>
      <circle class="cls-1" cx="89.38" cy="331.48" r="9.19"/>
      <circle class="cls-1" cx="101.1" cy="314.61" r="9.19"/>
      <circle class="cls-1" cx="89.38" cy="347.88" r="9.19"/>
      <circle class="cls-1" cx="102.83" cy="332.75" r="9.19"/>
      <circle class="cls-1" cx="107.12" cy="350.9" r="9.19"/>
      <circle class="cls-1" cx="21.63" cy="290.52" r="9.19"/>
      <circle class="cls-1" cx="25.74" cy="269.67" r="9.19"/>
      <circle class="cls-1" cx="33.47" cy="194.17" r="9.19"/>
      <circle class="cls-1" cx="34.86" cy="130.71" r="9.19"/>
      <circle class="cls-1" cx="55.33" cy="61.32" r="9.19"/>
      <circle class="cls-1" cx="12" cy="366.18" r="9.19"/>
      <circle class="cls-1" cx="9.2" cy="387.56" r="9.19"/>
      <circle class="cls-1" cx="41.73" cy="339.95" r="9.19"/>
      <circle class="cls-1" cx="130.07" cy="9.19" r="9.19"/>
      <circle class="cls-1" cx="118.56" cy="334.8" r="9.19"/>
      <circle class="cls-1" cx="140.52" cy="325.61" r="15.12"/>
      <circle class="cls-1" cx="134.47" cy="349.14" r="15.12"/>
      <circle class="cls-1" cx="117.95" cy="313.01" r="15.12"/>
      <circle class="cls-1" cx="159.44" cy="347.88" r="15.12"/>
      <circle class="cls-1" cx="143.67" cy="304.69" r="9.19"/>
      <circle class="cls-1" cx="158.63" cy="283.28" r="9.19"/>
      <circle class="cls-1" cx="152.62" cy="297.7" r="9.19"/>
      <circle class="cls-1" cx="173.21" cy="290.87" r="9.19"/>
      <circle class="cls-1" cx="166.13" cy="301.86" r="9.19"/>
      <circle class="cls-1" cx="159.45" cy="315.56" r="9.19"/>
      <circle class="cls-1" cx="167.82" cy="328.19" r="9.19"/>
      <circle class="cls-1" cx="179.24" cy="342.01" r="9.19"/>
      <circle class="cls-1" cx="178.2" cy="314.61" r="9.19"/>
      <circle class="cls-1" cx="188.43" cy="328.19" r="9.19"/>
      <circle class="cls-1" cx="109.37" cy="367.53" r="9.19"/>
      <circle class="cls-1" cx="117.95" cy="383.36" r="9.19"/>
      <circle class="cls-1" cx="125.4" cy="367.94" r="9.19"/>
      <circle class="cls-1" cx="127.76" cy="396.75" r="9.19"/>
      <circle class="cls-1" cx="134.73" cy="383.21" r="9.19"/>
      <circle class="cls-1" cx="145.26" cy="369.73" r="9.19"/>
      <circle class="cls-1" cx="189.67" cy="358.34" r="9.19"/>
      <circle class="cls-1" cx="149.43" cy="389.29" r="9.19"/>
      <circle class="cls-1" cx="163.93" cy="374.17" r="15.12"/>
      <circle class="cls-1" cx="158.63" cy="326.11" r="15.12"/>
      <circle class="cls-1" cx="187.39" cy="376.73" r="9.19"/>
      <circle class="cls-1" cx="179.76" cy="360.09" r="9.19"/>
      <circle class="cls-1" cx="194.5" cy="342.12" r="9.19"/>
      <circle class="cls-1" cx="206.19" cy="360.54" r="9.19"/>
      <circle class="cls-1" cx="206.19" cy="377.13" r="9.19"/>
      <circle class="cls-1" cx="221.25" cy="375.28" r="9.19"/>
      <circle class="cls-1" cx="145.26" cy="405.95" r="9.19"/>
      <circle class="cls-1" cx="163.12" cy="397.75" r="9.19"/>
      <circle class="cls-1" cx="181.31" cy="389.07" r="9.19"/>
      <circle class="cls-1" cx="181.15" cy="403.33" r="9.19"/>
      <circle class="cls-1" cx="197.63" cy="392.41" r="9.19"/>
      <circle class="cls-1" cx="217.58" cy="387.56" r="9.19"/>
      <circle class="cls-1" cx="210.55" cy="405.95" r="9.19"/>
      <circle class="cls-1" cx="224.49" cy="97.5" r="3.39"/>
      <circle class="cls-1" cx="229.94" cy="104" r="2.48"/>
      <circle class="cls-1" cx="233.4" cy="108.15" r="2.48"/>
      <circle class="cls-1" cx="235.03" cy="112.97" r="2.48"/>
      <circle class="cls-1" cx="235.22" cy="118.23" r="2.48"/>
      <circle class="cls-1" cx="234.1" cy="123.2" r="2.48"/>
      <circle class="cls-1" cx="239.9" cy="242.37" r="4.4"/>
      <circle class="cls-1" cx="240.25" cy="251.23" r="4.4"/>
      <circle class="cls-1" cx="240.68" cy="259.5" r="4.4"/>
      <circle class="cls-1" cx="242.61" cy="268.19" r="4.4"/>
      <circle class="cls-1" cx="244.51" cy="276" r="4.4"/>
      <circle class="cls-1" cx="247.02" cy="284.42" r="4.4"/>
      <circle class="cls-1" cx="248.37" cy="292.98" r="4.4"/>
      <circle class="cls-1" cx="249.44" cy="301.25" r="4.4"/>
      <circle class="cls-1" cx="249.44" cy="309.64" r="3.76"/>
      <circle class="cls-1" cx="249.44" cy="317.56" r="3.76"/>
      <circle class="cls-1" cx="248.37" cy="325.33" r="3.76"/>
      <circle class="cls-1" cx="247.02" cy="332.93" r="3.76"/>
      <circle class="cls-1" cx="251.42" cy="282.05" r="4.4"/>
      <circle class="cls-1" cx="249.44" cy="273.7" r="4.4"/>
      <circle class="cls-1" cx="253.66" cy="289.83" r="4.4"/>
      <circle class="cls-1" cx="254.81" cy="298.16" r="4.4"/>
      <circle class="cls-1" cx="256.68" cy="306.19" r="4.4"/>
      <circle class="cls-1" cx="255.98" cy="314.22" r="4.4"/>
      <circle class="cls-1" cx="254.81" cy="321.28" r="4.4"/>
      <circle class="cls-1" cx="253.1" cy="328.8" r="4.4"/>
      <circle class="cls-1" cx="260.88" cy="320.19" r="4.4"/>
      <circle class="cls-1" cx="247.91" cy="266.64" r="4.4"/>
      <circle class="cls-1" cx="245.79" cy="258.79" r="4.4"/>
      <circle class="cls-1" cx="260.88" cy="329.73" r="4.4"/>
      <circle class="cls-1" cx="253.66" cy="337.39" r="4.4"/>
      <circle class="cls-1" cx="266.87" cy="331.92" r="3.11"/>
      <circle class="cls-1" cx="264" cy="324.4" r="3.11"/>
      <circle class="cls-1" cx="251.42" cy="267.39" r="3.11"/>
      <circle class="cls-1" cx="255.56" cy="273.12" r="3.11"/>
      <circle class="cls-1" cx="258.87" cy="277.86" r="2.33"/>
      <circle class="cls-1" cx="262.33" cy="281.35" r="2.33"/>
      <circle class="cls-1" cx="265.81" cy="285.12" r="2.33"/>
      <circle class="cls-1" cx="269.7" cy="289.11" r="2.33"/>
      <circle class="cls-1" cx="187.99" cy="219.15" r="1.62"/>
      <circle class="cls-1" cx="192.1" cy="218.13" r="1.62"/>
      <circle class="cls-1" cx="197.46" cy="216.65" r="1.62"/>
      <circle class="cls-1" cx="203.83" cy="214.23" r="1.62"/>
      <circle class="cls-1" cx="183.13" cy="219.28" r="1.62"/>
    </g>
  </g>
</svg>