<?xml version="1.0" encoding="UTF-8"?>
<svg id="Layer_2" data-name="Layer 2" xmlns="http://www.w3.org/2000/svg" viewBox="0 0 260.63 294.18">
  <defs>
    <style>
      .cls-1 {
        fill: #231f20;
      }
    </style>
  </defs>
  <g id="Layer_2-2" data-name="Layer 2">
    <g>
      <circle class="cls-1" cx="38.71" cy="109.36" r="1.88"/>
      <circle class="cls-1" cx="36.37" cy="113.77" r="1.88"/>
      <circle class="cls-1" cx="34.37" cy="117.61" r="1.6"/>
      <circle class="cls-1" cx="32.47" cy="121.22" r="1.43"/>
      <circle class="cls-1" cx="20.97" cy="151.86" r="1.88"/>
      <circle class="cls-1" cx="19.09" cy="156.39" r="1.88"/>
      <circle class="cls-1" cx="37.21" cy="104.51" r="1.88"/>
      <circle class="cls-1" cx="19.52" cy="160.77" r="1.88"/>
      <circle class="cls-1" cx="21.38" cy="164.88" r="1.6"/>
      <circle class="cls-1" cx="29.07" cy="165.23" r="1.43"/>
      <circle class="cls-1" cx="27.22" cy="162.21" r="1.43"/>
      <circle class="cls-1" cx="23.71" cy="160.77" r="1.43"/>
      <circle class="cls-1" cx="32.71" cy="156.84" r="1.43"/>
      <circle class="cls-1" cx="33.67" cy="161.15" r="1.43"/>
      <circle class="cls-1" cx="37" cy="155.91" r="1.43"/>
      <circle class="cls-1" cx="41.34" cy="157.3" r="1.43"/>
      <circle class="cls-1" cx="34.82" cy="164.88" r="1.43"/>
      <circle class="cls-1" cx="44.72" cy="159.24" r="1.43"/>
      <circle class="cls-1" cx="47.54" cy="161.82" r="1.43"/>
      <circle class="cls-1" cx="50.47" cy="164.71" r="1.43"/>
      <circle class="cls-1" cx="38.31" cy="164.71" r="1.43"/>
      <circle class="cls-1" cx="46.56" cy="165.23" r="1.43"/>
      <circle class="cls-1" cx="54.7" cy="164.71" r="1.43"/>
      <circle class="cls-1" cx="27.71" cy="109.14" r="1.61"/>
      <circle class="cls-1" cx="29.8" cy="112.01" r="1.74"/>
      <circle class="cls-1" cx="31.21" cy="115.78" r="1.73"/>
      <circle class="cls-1" cx="27.7" cy="117.79" r="1.43"/>
      <circle class="cls-1" cx="24.31" cy="119.09" r="1.43"/>
      <circle class="cls-1" cx="20.9" cy="120.85" r="1.43"/>
      <circle class="cls-1" cx="17.26" cy="122.16" r="1.43"/>
      <circle class="cls-1" cx="13.83" cy="122.68" r="1.43"/>
      <circle class="cls-1" cx="10.78" cy="122.91" r="1.43"/>
      <circle class="cls-1" cx="25.09" cy="107.14" r="1.43"/>
      <circle class="cls-1" cx="22.03" cy="105.7" r="1.43"/>
      <circle class="cls-1" cx="18.52" cy="105.8" r="1.43"/>
      <circle class="cls-1" cx="14.94" cy="106.38" r="1.43"/>
      <circle class="cls-1" cx="11.92" cy="108.19" r="1.43"/>
      <circle class="cls-1" cx="9.3" cy="110.83" r="1.43"/>
      <circle class="cls-1" cx="8.83" cy="114.19" r="1.43"/>
      <circle class="cls-1" cx="9.3" cy="117.48" r="1.43"/>
      <circle class="cls-1" cx="9.3" cy="120.51" r="1.43"/>
      <circle class="cls-1" cx="14.94" cy="114.64" r="5.84"/>
      <circle class="cls-1" cx="74.56" cy="100.41" r="2.05"/>
      <circle class="cls-1" cx="79.55" cy="98.87" r="2.05"/>
      <circle class="cls-1" cx="84.54" cy="100.04" r="2.05"/>
      <circle class="cls-1" cx="89.53" cy="101.37" r="2.05"/>
      <circle class="cls-1" cx="93.79" cy="104.51" r="2.05"/>
      <circle class="cls-1" cx="98.07" cy="107.94" r="2.05"/>
      <circle class="cls-1" cx="97.16" cy="113.15" r="2.05"/>
      <circle class="cls-1" cx="92.48" cy="115.67" r="2.05"/>
      <circle class="cls-1" cx="86.51" cy="116.99" r="2.05"/>
      <circle class="cls-1" cx="81" cy="117.5" r="2.05"/>
      <circle class="cls-1" cx="76.1" cy="117.5" r="2.05"/>
      <circle class="cls-1" cx="70.77" cy="116.99" r="2.05"/>
      <circle class="cls-1" cx="70.3" cy="103.32" r="2.05"/>
      <circle class="cls-1" cx="68.89" cy="108.05" r="2.05"/>
      <circle class="cls-1" cx="64.41" cy="111.45" r="2.05"/>
      <circle class="cls-1" cx="65.05" cy="116.64" r="2.05"/>
      <circle class="cls-1" cx="77.25" cy="109.15" r="6.67"/>
      <circle class="cls-1" cx="42.73" cy="165.23" r="1.43"/>
      <circle class="cls-1" cx="32.71" cy="97.83" r="2.96"/>
      <circle class="cls-1" cx="27.8" cy="93.53" r="3.26"/>
      <circle class="cls-1" cx="22.71" cy="90.05" r="2.96"/>
      <circle class="cls-1" cx="16.89" cy="89.02" r="2.53"/>
      <circle class="cls-1" cx="11.92" cy="89.25" r="1.97"/>
      <circle class="cls-1" cx="8.69" cy="90.98" r="1.6"/>
      <circle class="cls-1" cx="6.9" cy="93.53" r="1.37"/>
      <circle class="cls-1" cx="64.38" cy="88.07" r="3.51"/>
      <circle class="cls-1" cx="70.19" cy="83.95" r="3.26"/>
      <circle class="cls-1" cx="75.28" cy="80.47" r="2.96"/>
      <circle class="cls-1" cx="81.1" cy="79.44" r="2.53"/>
      <circle class="cls-1" cx="86.07" cy="79.06" r="1.97"/>
      <circle class="cls-1" cx="90.27" cy="79.44" r="1.6"/>
      <circle class="cls-1" cx="93.79" cy="80.47" r="1.37"/>
      <circle class="cls-1" cx="96.63" cy="81.93" r="1.37"/>
      <circle class="cls-1" cx="99.44" cy="83.95" r="1.37"/>
      <circle class="cls-1" cx="101.67" cy="86.15" r="1.37"/>
      <circle class="cls-1" cx="24.55" cy="194.64" r="2.05"/>
      <circle class="cls-1" cx="20.92" cy="195.5" r="1.55"/>
      <circle class="cls-1" cx="29.48" cy="192.53" r="3.29"/>
      <circle class="cls-1" cx="41.34" cy="191.61" r="3.29"/>
      <circle class="cls-1" cx="35.01" cy="192.53" r="3.29"/>
      <circle class="cls-1" cx="47.63" cy="191.95" r="2.68"/>
      <circle class="cls-1" cx="52.55" cy="192.53" r="2.08"/>
      <circle class="cls-1" cx="56.03" cy="192.96" r="1.35"/>
      <circle class="cls-1" cx="59.22" cy="192.96" r="1.35"/>
      <circle class="cls-1" cx="62.54" cy="193.39" r="1.35"/>
      <circle class="cls-1" cx="29.89" cy="199.04" r="2.8"/>
      <circle class="cls-1" cx="35.61" cy="199.4" r="2.8"/>
      <circle class="cls-1" cx="41.34" cy="199.4" r="2.8"/>
      <circle class="cls-1" cx="24.55" cy="199.2" r="2.28"/>
      <circle class="cls-1" cx="46.64" cy="197.76" r="2.28"/>
      <circle class="cls-1" cx="50.77" cy="196.77" r="1.88"/>
      <circle class="cls-1" cx="54.7" cy="196.42" r="1.35"/>
      <circle class="cls-1" cx="66.99" cy="194.03" r="1.79"/>
      <circle class="cls-1" cx="38.71" cy="254.94" r="2.83"/>
      <circle class="cls-1" cx="32.71" cy="252.53" r="2.83"/>
      <circle class="cls-1" cx="27.22" cy="248.86" r="2.83"/>
      <circle class="cls-1" cx="23.54" cy="243.72" r="2.83"/>
      <circle class="cls-1" cx="20.08" cy="238.16" r="2.83"/>
      <circle class="cls-1" cx="16.62" cy="233.13" r="2.83"/>
      <circle class="cls-1" cx="14.21" cy="227.93" r="2.83"/>
      <circle class="cls-1" cx="11.81" cy="221.99" r="2.83"/>
      <circle class="cls-1" cx="9.34" cy="216.05" r="2.83"/>
      <circle class="cls-1" cx="7.4" cy="209.11" r="2.83"/>
      <circle class="cls-1" cx="5.98" cy="203.17" r="2.83"/>
      <circle class="cls-1" cx="5.44" cy="196.49" r="2.83"/>
      <circle class="cls-1" cx="4.33" cy="189.8" r="2.83"/>
      <circle class="cls-1" cx="3.49" cy="183.36" r="2.83"/>
      <circle class="cls-1" cx="3.22" cy="176.82" r="2.83"/>
      <circle class="cls-1" cx="3.22" cy="170.07" r="2.83"/>
      <circle class="cls-1" cx="2.83" cy="163.33" r="2.83"/>
      <circle class="cls-1" cx="2.83" cy="157.3" r="2.83"/>
      <circle class="cls-1" cx="3.22" cy="150.51" r="2.83"/>
      <circle class="cls-1" cx="4.33" cy="143.66" r="2.83"/>
      <circle class="cls-1" cx="4.8" cy="137.32" r="2.83"/>
      <circle class="cls-1" cx="4.8" cy="130.63" r="2.83"/>
      <circle class="cls-1" cx="4.33" cy="123.64" r="2.83"/>
      <circle class="cls-1" cx="4.33" cy="116.99" r="2.83"/>
      <circle class="cls-1" cx="4.33" cy="110.17" r="2.83"/>
      <circle class="cls-1" cx="4.8" cy="103.49" r="2.83"/>
      <circle class="cls-1" cx="5.06" cy="97.06" r="2.83"/>
      <circle class="cls-1" cx="6.7" cy="89.87" r="2.83"/>
      <circle class="cls-1" cx="10.28" cy="83.95" r="2.83"/>
      <circle class="cls-1" cx="12.9" cy="78.14" r="2.83"/>
      <circle class="cls-1" cx="15.82" cy="72.62" r="2.83"/>
      <circle class="cls-1" cx="18.74" cy="67.1" r="2.83"/>
      <circle class="cls-1" cx="22" cy="60.94" r="2.83"/>
      <circle class="cls-1" cx="25.77" cy="54.68" r="2.83"/>
      <circle class="cls-1" cx="29.59" cy="48.77" r="2.83"/>
      <circle class="cls-1" cx="41.43" cy="260.34" r="2.83"/>
      <circle class="cls-1" cx="42.04" cy="266.68" r="2.83"/>
      <circle class="cls-1" cx="41.9" cy="273" r="2.83"/>
      <circle class="cls-1" cx="41.43" cy="279.7" r="2.83"/>
      <circle class="cls-1" cx="40.51" cy="286.9" r="2.83"/>
      <circle class="cls-1" cx="169.44" cy="204.02" r="2.83"/>
      <circle class="cls-1" cx="168.29" cy="210.85" r="2.83"/>
      <circle class="cls-1" cx="165.93" cy="217.67" r="2.83"/>
      <circle class="cls-1" cx="164.79" cy="225.05" r="2.83"/>
      <circle class="cls-1" cx="164.24" cy="232.13" r="2.83"/>
      <circle class="cls-1" cx="164.24" cy="239.05" r="2.83"/>
      <circle class="cls-1" cx="164.24" cy="246.97" r="2.83"/>
      <circle class="cls-1" cx="164.79" cy="253.91" r="2.83"/>
      <circle class="cls-1" cx="164.79" cy="261.27" r="2.83"/>
      <circle class="cls-1" cx="165.77" cy="268.62" r="2.83"/>
      <circle class="cls-1" cx="167.36" cy="275.65" r="2.83"/>
      <circle class="cls-1" cx="170.96" cy="282.09" r="2.83"/>
      <circle class="cls-1" cx="176.03" cy="286.65" r="2.83"/>
      <circle class="cls-1" cx="182.35" cy="291.35" r="2.83"/>
      <circle class="cls-1" cx="33.91" cy="42.12" r="2.83"/>
      <circle class="cls-1" cx="40.14" cy="36" r="3.28"/>
      <circle class="cls-1" cx="46.86" cy="31.23" r="3.28"/>
      <circle class="cls-1" cx="55.36" cy="25.6" r="4.47"/>
      <circle class="cls-1" cx="64.53" cy="20.23" r="5.46"/>
      <circle class="cls-1" cx="76.96" cy="16.62" r="6.6"/>
      <circle class="cls-1" cx="93.08" cy="15.76" r="8.59"/>
      <circle class="cls-1" cx="114.39" cy="8.6" r="8.59"/>
      <circle class="cls-1" cx="111.08" cy="26.28" r="8.59"/>
      <circle class="cls-1" cx="125.95" cy="17.19" r="8.59"/>
      <circle class="cls-1" cx="127.78" cy="36.07" r="8.59"/>
      <circle class="cls-1" cx="104.05" cy="11.63" r="8.59"/>
      <circle class="cls-1" cx="138.94" cy="25.6" r="8.59"/>
      <circle class="cls-1" cx="137.77" cy="47.12" r="8.59"/>
      <circle class="cls-1" cx="142.6" cy="62.32" r="8.59"/>
      <circle class="cls-1" cx="153.69" cy="31.23" r="8.59"/>
      <circle class="cls-1" cx="146.37" cy="39.83" r="8.59"/>
      <circle class="cls-1" cx="167.21" cy="37.99" r="8.59"/>
      <circle class="cls-1" cx="155.94" cy="53.02" r="8.59"/>
      <circle class="cls-1" cx="168.82" cy="47.12" r="8.59"/>
      <circle class="cls-1" cx="145.7" cy="76.39" r="8.59"/>
      <circle class="cls-1" cx="145.7" cy="91.79" r="8.59"/>
      <circle class="cls-1" cx="154.91" cy="105.66" r="8.59"/>
      <circle class="cls-1" cx="157.5" cy="121.26" r="8.59"/>
      <circle class="cls-1" cx="162.44" cy="135.28" r="8.59"/>
      <circle class="cls-1" cx="217.01" cy="127.89" r="8.59"/>
      <circle class="cls-1" cx="199.29" cy="178.87" r="8.59"/>
      <circle class="cls-1" cx="206.11" cy="161.47" r="8.59"/>
      <circle class="cls-1" cx="208.05" cy="145.41" r="8.59"/>
      <circle class="cls-1" cx="224.63" cy="117.96" r="8.59"/>
      <circle class="cls-1" cx="172.29" cy="122.41" r="8.59"/>
      <circle class="cls-1" cx="186.42" cy="117.96" r="8.59"/>
      <circle class="cls-1" cx="169.29" cy="107.94" r="8.59"/>
      <circle class="cls-1" cx="162.44" cy="93.59" r="8.59"/>
      <circle class="cls-1" cx="157.5" cy="80.47" r="8.59"/>
      <circle class="cls-1" cx="160.22" cy="68.04" r="8.59"/>
      <circle class="cls-1" cx="179.48" cy="44.42" r="8.59"/>
      <circle class="cls-1" cx="204.12" cy="119.25" r="8.59"/>
      <circle class="cls-1" cx="157.5" cy="48.23" r="8.59"/>
      <circle class="cls-1" cx="153.69" cy="70.01" r="8.59"/>
      <circle class="cls-1" cx="189.56" cy="51.76" r="8.59"/>
      <circle class="cls-1" cx="179.48" cy="60.66" r="8.59"/>
      <circle class="cls-1" cx="193.72" cy="65.29" r="8.59"/>
      <circle class="cls-1" cx="172.29" cy="62.32" r="8.59"/>
      <circle class="cls-1" cx="174.38" cy="76.39" r="8.59"/>
      <circle class="cls-1" cx="188.08" cy="77.43" r="8.59"/>
      <circle class="cls-1" cx="173.68" cy="89.58" r="8.59"/>
      <circle class="cls-1" cx="118.75" cy="30.86" r="8.59"/>
      <circle class="cls-1" cx="183.91" cy="101.82" r="8.59"/>
      <circle class="cls-1" cx="187.86" cy="92.35" r="8.59"/>
      <circle class="cls-1" cx="199.29" cy="81.23" r="8.59"/>
      <circle class="cls-1" cx="204.94" cy="93.59" r="8.59"/>
      <circle class="cls-1" cx="197.81" cy="106.33" r="8.59"/>
      <circle class="cls-1" cx="203.64" cy="128.99" r="8.59"/>
      <circle class="cls-1" cx="213.53" cy="108.05" r="8.59"/>
      <circle class="cls-1" cx="192.29" cy="193.94" r="8.59"/>
      <circle class="cls-1" cx="182.63" cy="205.92" r="8.59"/>
      <circle class="cls-1" cx="177.57" cy="221.54" r="8.59"/>
      <circle class="cls-1" cx="189.22" cy="221.54" r="8.59"/>
      <circle class="cls-1" cx="218.89" cy="141.19" r="6.07"/>
      <circle class="cls-1" cx="230.88" cy="130.33" r="6.07"/>
      <circle class="cls-1" cx="217.53" cy="153.17" r="6.07"/>
      <circle class="cls-1" cx="211.81" cy="175.54" r="6.07"/>
      <circle class="cls-1" cx="206.11" cy="190.12" r="6.07"/>
      <circle class="cls-1" cx="194.29" cy="205.92" r="6.07"/>
      <circle class="cls-1" cx="172.87" cy="236.01" r="6.07"/>
      <circle class="cls-1" cx="183.64" cy="232.13" r="6.07"/>
      <circle class="cls-1" cx="201.97" cy="169.84" r="6.07"/>
      <circle class="cls-1" cx="236" cy="134.06" r="3.37"/>
      <circle class="cls-1" cx="239.37" cy="138.73" r="3.37"/>
      <circle class="cls-1" cx="240.19" cy="144.56" r="3.37"/>
      <circle class="cls-1" cx="238.42" cy="150.01" r="3.37"/>
      <circle class="cls-1" cx="233.75" cy="153.76" r="3.37"/>
      <circle class="cls-1" cx="227.79" cy="153.76" r="3.37"/>
      <circle class="cls-1" cx="222.71" cy="152.54" r="3.37"/>
      <circle class="cls-1" cx="226.82" cy="192.32" r="5.48"/>
      <circle class="cls-1" cx="219.54" cy="192.32" r="3.37"/>
      <circle class="cls-1" cx="213.35" cy="191.05" r="3.37"/>
      <circle class="cls-1" cx="230.22" cy="185.57" r="3.37"/>
      <circle class="cls-1" cx="231.51" cy="180.09" r="3.37"/>
      <circle class="cls-1" cx="230.88" cy="174.44" r="3.37"/>
      <circle class="cls-1" cx="228.63" cy="169.84" r="3.37"/>
      <circle class="cls-1" cx="226.7" cy="165.16" r="3.37"/>
      <circle class="cls-1" cx="226.45" cy="159.44" r="3.37"/>
      <circle class="cls-1" cx="222.71" cy="199.36" r="3.37"/>
      <circle class="cls-1" cx="222.04" cy="204.02" r="3.37"/>
      <circle class="cls-1" cx="224.42" cy="209.98" r="3.37"/>
      <circle class="cls-1" cx="228.63" cy="214.16" r="3.37"/>
      <circle class="cls-1" cx="234.27" cy="214.16" r="3.37"/>
      <circle class="cls-1" cx="240.05" cy="211.99" r="3.37"/>
      <circle class="cls-1" cx="245.44" cy="209.23" r="3.37"/>
      <circle class="cls-1" cx="250.71" cy="205.92" r="3.37"/>
      <circle class="cls-1" cx="255.99" cy="202.55" r="3.37"/>
      <circle class="cls-1" cx="257.26" cy="196.36" r="3.37"/>
      <circle class="cls-1" cx="252.47" cy="192.54" r="3.37"/>
      <circle class="cls-1" cx="246.32" cy="191.05" r="3.37"/>
      <circle class="cls-1" cx="240.19" cy="191.32" r="3.37"/>
      <circle class="cls-1" cx="233.75" cy="191.32" r="3.37"/>
      <circle class="cls-1" cx="172.87" cy="200.32" r="2.83"/>
      <circle class="cls-1" cx="178.23" cy="196.22" r="2.83"/>
      <path class="cls-1" d="M181.06,189.49c1.56,0,2.83,1.27,2.83,2.83s-1.27,2.83-2.83,2.83-2.83-1.27-2.83-2.83,1.27-2.83,2.83-2.83Z"/>
      <circle class="cls-1" cx="184.66" cy="188.32" r="2.83"/>
      <circle class="cls-1" cx="188.05" cy="183.71" r="2.83"/>
      <circle class="cls-1" cx="189.62" cy="177.43" r="2.83"/>
      <circle class="cls-1" cx="192.29" cy="171.52" r="2.83"/>
      <circle class="cls-1" cx="195.5" cy="166.3" r="2.83"/>
      <circle class="cls-1" cx="196.36" cy="160.14" r="2.83"/>
      <circle class="cls-1" cx="198.64" cy="153.76" r="2.83"/>
      <circle class="cls-1" cx="167.1" cy="197.27" r="2.83"/>
      <circle class="cls-1" cx="196.36" cy="147.64" r="2.83"/>
      <circle class="cls-1" cx="191.93" cy="142.09" r="2.83"/>
      <circle class="cls-1" cx="185.57" cy="138.73" r="2.83"/>
      <circle class="cls-1" cx="178.23" cy="142.09" r="2.83"/>
      <circle class="cls-1" cx="183.04" cy="129.64" r="8.59"/>
      <circle class="cls-1" cx="197.81" cy="134.35" r="8.59"/>
      <circle class="cls-1" cx="185.57" cy="153.91" r="2.41"/>
      <circle class="cls-1" cx="188.05" cy="158.94" r="2.41"/>
      <circle class="cls-1" cx="187.32" cy="163.23" r="2.41"/>
      <circle class="cls-1" cx="187.03" cy="167.55" r="2.41"/>
      <circle class="cls-1" cx="182.59" cy="169.26" r="2.41"/>
      <circle class="cls-1" cx="177.69" cy="171.12" r="2.41"/>
      <circle class="cls-1" cx="172.29" cy="173.06" r="2.41"/>
      <circle class="cls-1" cx="190.46" cy="151.34" r="2.41"/>
      <circle class="cls-1" cx="175.63" cy="160.27" r="2.41"/>
      <circle class="cls-1" cx="179.13" cy="163.86" r="2.41"/>
      <circle class="cls-1" cx="37.59" cy="159.48" r="2.81"/>
      <circle class="cls-1" cx="41.71" cy="161.34" r="2.81"/>
      <circle class="cls-1" cx="24.31" cy="163.33" r="1.98"/>
      <circle class="cls-1" cx="37" cy="162.71" r="1.43"/>
      <circle class="cls-1" cx="45.36" cy="161.34" r="1.43"/>
      <circle class="cls-1" cx="45.36" cy="162.92" r="1.43"/>
      <circle class="cls-1" cx="57.66" cy="163.03" r="1.6"/>
      <circle class="cls-1" cx="59.54" cy="159.48" r="1.88"/>
      <circle class="cls-1" cx="60.41" cy="155.9" r="1.88"/>
      <circle class="cls-1" cx="59.38" cy="152.55" r="1.88"/>
      <circle class="cls-1" cx="57.26" cy="148.47" r="1.88"/>
      <circle class="cls-1" cx="29.48" cy="196.82" r="1.35"/>
      <circle class="cls-1" cx="32.72" cy="196.91" r="1.35"/>
      <circle class="cls-1" cx="38.31" cy="196.91" r="1.35"/>
      <circle class="cls-1" cx="44.15" cy="196.42" r="1.35"/>
      <circle class="cls-1" cx="41.34" cy="196.77" r="1.35"/>
      <circle class="cls-1" cx="35.61" cy="196.82" r="1.35"/>
      <circle class="cls-1" cx="21.46" cy="197.86" r="1.35"/>
      <circle class="cls-1" cx="57.59" cy="195.4" r="1.35"/>
      <circle class="cls-1" cx="34.82" cy="156.19" r="1.43"/>
      <circle class="cls-1" cx="33.18" cy="158.91" r="1.43"/>
      <circle class="cls-1" cx="33.71" cy="163.03" r="1.43"/>
      <circle class="cls-1" cx="26.29" cy="164.19" r="1.98"/>
      <path class="cls-1" d="M172.29,183.71c1.56,0,2.83,1.27,2.83,2.83s-1.27,2.83-2.83,2.83-2.83-1.27-2.83-2.83,1.27-2.83,2.83-2.83Z"/>
    </g>
  </g>
</svg>