<?xml version="1.0" encoding="UTF-8"?>
<svg id="Layer_2" data-name="Layer 2" xmlns="http://www.w3.org/2000/svg" viewBox="0 0 116.3 116.3">
  <defs>
    <style>
      .cls-1 {
        fill: #1d1d1b;
      }
    </style>
  </defs>
  <g id="logo">
    <path class="cls-1" d="M108.1,0H8.2C3.67,0,0,3.67,0,8.2V108.1c0,4.53,3.67,8.2,8.2,8.2H28.38c4.53,0,8.2-3.67,8.2-8.2v-23.46c0-4.53,3.67-8.2,8.2-8.2h26.74c4.53,0,8.2,3.67,8.2,8.2v23.46c0,4.53,3.67,8.2,8.2,8.2h20.18c4.53,0,8.2-3.67,8.2-8.2V8.2c0-4.53-3.67-8.2-8.2-8.2Zm-28.38,38.75c0,3.88-3.67,7.02-8.2,7.02h-26.74c-4.53,0-8.2-3.14-8.2-7.02v-4.34c0-3.88,3.67-7.02,8.2-7.02h26.74c4.53,0,8.2,3.14,8.2,7.02v4.34Z"/>
  </g>
</svg>