<?xml version="1.0" encoding="UTF-8"?>
<svg id="Layer_2" data-name="Layer 2" xmlns="http://www.w3.org/2000/svg" viewBox="0 0 116.3 116.3">
  <defs>
    <style>
      .cls-1 {
        fill: #1d1d1b;
      }
    </style>
  </defs>
  <g id="logo">
    <path class="cls-1" d="M76.43,72.87h0c0,1.97-1.59,3.56-3.56,3.56h-29.58c-1.97,0-3.56-1.59-3.56-3.56v-29.58c0-1.97,1.59-3.56,3.56-3.56h29.58c1.97,0,3.56,1.59,3.56,3.56h0c0,3.6,2.92,6.52,6.52,6.52h26.83c3.6,0,6.52-2.92,6.52-6.52V11.28c0-6.23-5.05-11.28-11.28-11.28H11.28C5.05,0,0,5.05,0,11.28V105.02c0,6.23,5.05,11.28,11.28,11.28H105.02c6.23,0,11.28-5.05,11.28-11.28v-32.15c0-3.53-2.86-6.39-6.39-6.39h-27.1c-3.53,0-6.39,2.86-6.39,6.39Z"/>
  </g>
</svg>