<?xml version="1.0" encoding="UTF-8"?>
<svg id="Layer_2" data-name="Layer 2" xmlns="http://www.w3.org/2000/svg" viewBox="0 0 708.5 711.6">
  <defs>
    <style>
      .cls-1 {
        fill: #1d1d1b;
      }
    </style>
  </defs>
  <g id="tipos">
    <g>
      <path class="cls-1" d="M670.19,383.91h-146.25c-21.14,0-38.27,17.14-38.27,38.27v26.86c0,21.4-17.35,38.75-38.75,38.75h-185.67c-10,0-19.1-3.82-25.93-10.09-7.46-6.84-17.36-10.4-27.49-10.4H40c-22.09,0-40,17.91-40,40v166.2c0,21.04,17.06,38.1,38.1,38.1H669.36c21.62,0,39.15-17.53,39.15-39.15v-250.23c0-21.16-17.15-38.32-38.32-38.32Z"/>
      <path class="cls-1" d="M669.82,0H39.74C17.79,0,0,17.79,0,39.74V204.3c0,22.09,17.91,40,40,40H207.86c10.16,0,20.09-3.55,27.6-10.4,6.87-6.26,16-10.08,26.02-10.08h185.89c21.15,0,38.29,17.14,38.29,38.29v22.22c0,21.14,17.14,38.27,38.27,38.27h145.56c21.55,0,39.01-17.47,39.01-39.01V38.69c0-21.37-17.32-38.69-38.69-38.69Z"/>
    </g>
  </g>
</svg>