<?xml version="1.0" encoding="UTF-8"?>
<svg id="Layer_2" data-name="Layer 2" xmlns="http://www.w3.org/2000/svg" viewBox="0 0 115.84 115.84">
  <defs>
    <style>
      .cls-1 {
        fill: #1d1d1b;
      }
    </style>
  </defs>
  <g id="logo">
    <path class="cls-1" d="M115.84,18.05V8.17c0-4.51-3.66-8.17-8.17-8.17H8.17C3.66,0,0,3.66,0,8.17V107.67c0,4.51,3.66,8.17,8.17,8.17H107.67c4.51,0,8.17-3.66,8.17-8.17v-9.88c0-4.51-3.66-8.17-8.17-8.17H44.6c-4.51,0-8.17-3.66-8.17-8.17v-1.86c0-4.51,3.66-8.17,8.17-8.17h63.07c4.51,0,8.17-3.66,8.17-8.17v-9.88c0-4.51-3.66-8.17-8.17-8.17H44.6c-4.51,0-8.17-3.66-8.17-8.17v-2.64c0-4.51,3.66-8.17,8.17-8.17h63.07c4.51,0,8.17-3.66,8.17-8.17Z"/>
  </g>
</svg>