<?xml version="1.0" encoding="UTF-8"?>
<svg id="Layer_2" data-name="Layer 2" xmlns="http://www.w3.org/2000/svg" viewBox="0 0 709 709">
  <g id="tipos">
    <g>
      <rect x="223" y="276.63" width="486" height="160.5" rx="50" ry="50"/>
      <path d="M223,210.5c0-27.61,22.39-50,50-50h386c27.61,0,50-22.39,50-50V50c0-27.61-22.39-50-50-50H50C22.39,0,0,22.39,0,50V192c0,27.61,22.39,50,50,50H191.34c17.42,0,31.57-14.08,31.66-31.5h0Z"/>
      <path d="M223,497.63c0,27.73,22.39,50.21,50,50.21h386c27.61,0,50,22.48,50,50.21v60.75c0,27.73-22.39,50.21-50,50.21H50c-27.61,0-50-22.48-50-50.21v-142.59c0-27.73,22.39-50.21,50-50.21H191.34c17.42,0,31.57,14.13,31.66,31.63h0Z"/>
    </g>
  </g>
</svg>