<?xml version="1.0" encoding="UTF-8"?>
<svg id="Layer_2" data-name="Layer 2" xmlns="http://www.w3.org/2000/svg" viewBox="0 0 116.23 116.34">
  <defs>
    <style>
      .cls-1 {
        fill: #1d1d1b;
      }
    </style>
  </defs>
  <g id="logo">
    <path class="cls-1" d="M7.44,0h27.99c2.47,0,4.78,1.22,6.16,3.27l23.56,34.81c4.11,6.08,13.6,3.16,13.6-4.18V7.45c0-4.11,3.33-7.45,7.44-7.45h22.6c4.11,0,7.44,3.33,7.44,7.45V108.89c0,4.11-3.33,7.45-7.44,7.45h-26.08c-2.47,0-4.78-1.23-6.17-3.28l-23.46-34.8c-4.1-6.08-13.59-3.19-13.61,4.15l-.07,26.51c-.01,4.11-3.34,7.43-7.44,7.43H7.44c-4.11,0-7.44-3.33-7.44-7.45V7.45C0,3.33,3.33,0,7.44,0Z"/>
  </g>
</svg>