<?xml version="1.0" encoding="UTF-8"?>
<svg id="Layer_2" data-name="Layer 2" xmlns="http://www.w3.org/2000/svg" viewBox="0 0 708.34 709">
  <defs>
    <style>
      .cls-1 {
        fill: #1d1d1b;
      }
    </style>
  </defs>
  <g id="tipos">
    <path class="cls-1" d="M0,416.44V45.39C0,20.32,20.3,0,45.34,0H215.92c15.04,0,29.1,7.46,37.54,19.93l143.6,212.13c25.07,37.03,82.88,19.27,82.88-25.46V45.39c0-25.07,20.3-45.39,45.34-45.39h137.71c25.04,0,45.34,20.32,45.34,45.39V663.61c0,25.07-20.3,45.39-45.34,45.39h-158.95c-15.07,0-29.16-7.5-37.59-20l-210.88-207.99c-9.37-9.24-22-14.43-35.16-14.43H50.1c-27.67,0-50.1-22.45-50.1-50.14Z"/>
  </g>
</svg>