<?xml version="1.0" encoding="UTF-8"?>
<svg id="Layer_2" data-name="Layer 2" xmlns="http://www.w3.org/2000/svg" viewBox="0 0 709.5 708.01">
  <defs>
    <style>
      .cls-1 {
        fill: #1d1d1b;
      }
    </style>
  </defs>
  <g id="tipos">
    <path class="cls-1" d="M709.5,292.15v370.54c0,25.03-20.33,45.32-45.42,45.32h-170.86c-15.07,0-29.15-7.45-37.6-19.9l-143.83-211.83c-25.11-36.98-83.02-19.24-83.02,25.42v160.99c0,25.03-20.33,45.32-45.42,45.32H45.42c-25.08,0-45.42-20.29-45.42-45.32V45.32C0,20.29,20.33,0,45.42,0H204.63c15.1,0,29.21,7.48,37.65,19.97l211.22,207.7c9.39,9.23,22.04,14.41,35.22,14.41h170.6c27.71,0,50.18,22.42,50.18,50.07Z"/>
  </g>
</svg>