<?xml version="1.0" encoding="UTF-8"?>
<svg id="Layer_2" data-name="Layer 2" xmlns="http://www.w3.org/2000/svg" viewBox="0 0 116.3 116.3">
  <defs>
    <style>
      .cls-1 {
        fill: #1d1d1b;
      }
    </style>
  </defs>
  <g id="logo">
    <path class="cls-1" d="M107.95,0H8.19C3.67,0,0,3.67,0,8.2L.08,108.1c0,4.53,3.67,8.2,8.19,8.2H28.42c4.52,0,8.19-3.67,8.19-8.2l.08-31.58,37.28,36.21c1.53,2.23,4.05,3.56,6.76,3.56h31.72c3.06,0,4.13-2.29,3.75-5.04-.31-2.22-1.15-4.36-2.42-6.2-1.4-2.01-3.34-3.44-5.2-4.99-1.98-1.65-3.96-3.29-5.94-4.94-4.57-3.8-9.63-7.6-14.2-11.4-2.81-2.34-5.62-4.67-8.42-7.01l-.24-.2h28.34c4.52,0,8.19-3.67,8.19-8.2V8.2c0-4.53-3.83-8.2-8.35-8.2Zm-36.36,49.13h-26.7c-4.52,0-8.19-3.14-8.19-7.02v-4.34c0-3.88,3.67-7.02,8.19-7.02h26.7c4.52,0,8.19,3.14,8.19,7.02v4.34c0,3.88-3.67,7.02-8.19,7.02Z"/>
  </g>
</svg>