<?xml version="1.0" encoding="UTF-8"?>
<svg id="Layer_2" data-name="Layer 2" xmlns="http://www.w3.org/2000/svg" viewBox="0 0 709.83 709">
  <g id="tipos">
    <path d="M237.97,482.09l213.64,205.18c9.32,13.6,24.75,21.73,41.24,21.73h193.65c18.7,0,25.2-13.97,22.88-30.75-1.86-13.52-7-26.58-14.78-37.79-8.52-12.28-20.4-21-31.77-30.44-12.08-10.03-24.16-20.07-36.25-30.1-27.9-23.17-58.79-46.33-86.69-69.5-17.14-14.24-34.29-28.47-51.43-42.71l-1.46-1.21h173c27.06,0,49-21.94,49-49V50c0-27.61-22.39-50-50-50H50C22.39,0,0,22.39,0,50L.36,416.95c.03,27.44,22.16,49.73,49.59,49.95l153.78,1.25c12.77,.1,25.02,5.09,34.23,13.94Zm199.03-182.59h-163c-27.61,0-50-19.16-50-42.78v-26.43c0-23.63,22.39-42.78,50-42.78h163c27.61,0,50,19.16,50,42.78v26.43c0,23.63-22.39,42.78-50,42.78Z"/>
  </g>
</svg>