<?xml version="1.0" encoding="UTF-8"?>
<svg id="Layer_2" data-name="Layer 2" xmlns="http://www.w3.org/2000/svg" viewBox="0 0 116.23 116.23">
  <defs>
    <style>
      .cls-1 {
        fill: #1d1d1b;
      }
    </style>
  </defs>
  <g id="logo">
    <path class="cls-1" d="M116.23,18.2V8.2c0-4.53-3.67-8.2-8.2-8.2H8.2C3.67,0,0,3.67,0,8.2V63.09c0,4.52,3.67,8.19,8.19,8.2l31.65,.02h28.36c4.53,0,8.2,3.67,8.2,8.2v2.13c0,4.53-3.67,8.2-8.2,8.2H8.2c-4.53,0-8.2,3.67-8.2,8.2v9.98c0,4.52,3.67,8.19,8.19,8.2l31.65,.02H108.03c4.53,0,8.2-3.67,8.2-8.2V53.12c0-4.53-3.67-8.2-8.2-8.2H48.03c-4.53,0-8.2-3.67-8.2-8.2v-2.13c0-4.53,3.67-8.2,8.2-8.2h60c4.53,0,8.2-3.67,8.2-8.2Z"/>
  </g>
</svg>