<?xml version="1.0" encoding="UTF-8"?>
<svg id="Layer_2" data-name="Layer 2" xmlns="http://www.w3.org/2000/svg" viewBox="0 0 709 709">
  <defs>
    <style>
      .cls-1 {
        fill: #1d1d1b;
      }
    </style>
  </defs>
  <g id="tipos">
    <g>
      <path class="cls-1" d="M466,466v82H41c-22.64,0-41,18.36-41,41v79c0,22.64,18.36,41,41,41H668c22.64,0,41-18.36,41-41V284c0-22.64-18.36-41-41-41h-150.03c-27.39,0-49.68,22.04-50,49.43l-1.98,173.57Z"/>
      <path class="cls-1" d="M243,243v-82h425c22.64,0,41-18.36,41-41V41c0-22.64-18.36-41-41-41H41C18.36,0,0,18.36,0,41V425c0,22.64,18.36,41,41,41H191.11c27.4,0,49.7-22.05,50-49.45l1.89-173.55Z"/>
    </g>
  </g>
</svg>