<?xml version="1.0" encoding="UTF-8"?>
<svg id="Layer_2" data-name="Layer 2" xmlns="http://www.w3.org/2000/svg" viewBox="0 0 708.39 709">
  <g id="tipos">
    <g>
      <path d="M91.64,223c-21.45,0-40.51-13.68-47.37-34L2.4,65C-7.99,32.79,16.68,0,51.31,0h120c22.96,0,43.11,14.88,49.35,36.42l37.84,121.74c10,32.18-14.05,64.84-47.75,64.84H91.64Z"/>
      <path d="M354.2,466L487.74,36.42C493.97,14.88,514.13,0,537.09,0h120c34.63,0,59.3,32.79,48.91,65l-205.66,609c-6.72,20.83-26.52,35-48.91,35h-194.46c-22.39,0-42.19-14.17-48.91-35l-47.95-142c-10.95-32.41,13.16-66,47.37-66h146.72Z"/>
    </g>
  </g>
</svg>