<?xml version="1.0" encoding="UTF-8"?>
<svg id="Layer_2" data-name="Layer 2" xmlns="http://www.w3.org/2000/svg" viewBox="0 0 708.39 709">
  <defs>
    <style>
      .cls-1 {
        fill: #1d1d1b;
      }
    </style>
  </defs>
  <g id="tipos">
    <g>
      <path class="cls-1" d="M616.75,223c21.45,0,40.51-13.68,47.37-34l41.87-124c10.39-32.21-14.28-65-48.91-65h-120c-22.96,0-43.11,14.88-49.35,36.42l-37.84,121.74c-10,32.18,14.05,64.84,47.75,64.84h119.11Z"/>
      <path class="cls-1" d="M354.2,466L220.66,36.42C214.42,14.88,194.26,0,171.31,0H51.31C16.68,0-7.99,32.79,2.4,65L208.06,674c6.72,20.83,26.52,35,48.91,35h194.46c22.39,0,42.19-14.17,48.91-35l47.95-142c10.95-32.41-13.16-66-47.37-66h-146.72Z"/>
    </g>
  </g>
</svg>